<svg version="1.1" id="Layer_1" xmlns="http://www.w3.org/2000/svg" xmlns:xlink="http://www.w3.org/1999/xlink" x="0px" y="0px"
	 width="100%" viewBox="0 0 1280 1024" enable-background="new 0 0 1280 1024" xml:space="preserve">
<path fill="#FFFFFF" opacity="1.000000" stroke="none" 
	d="
M660.000000,1025.000000 
	C440.000000,1025.000000 220.500000,1025.000000 1.000000,1025.000000 
	C1.000000,683.666687 1.000000,342.333344 1.000000,1.000000 
	C427.666656,1.000000 854.333313,1.000000 1281.000000,1.000000 
	C1281.000000,342.333344 1281.000000,683.666687 1281.000000,1025.000000 
	C1074.166626,1025.000000 867.333313,1025.000000 660.000000,1025.000000 
M217.821686,724.117859 
	C217.791306,706.348938 217.802826,688.579834 217.688538,670.811401 
	C217.669907,667.916016 217.095139,665.024170 216.757217,661.946716 
	C210.780121,661.946716 205.335266,661.946716 199.358124,662.069885 
	C199.244843,662.394348 199.131546,662.718811 198.983353,663.975159 
	C198.983353,689.858582 198.983353,715.742004 198.983353,741.651611 
	C205.300354,741.651611 210.771439,741.641357 216.242462,741.653625 
	C230.047501,741.684692 243.857651,741.522705 257.654785,741.871216 
	C262.605469,741.996338 264.254761,740.119019 263.880371,735.559937 
	C263.771881,734.238770 263.698456,732.875916 263.895325,731.575562 
	C264.565948,727.146362 262.727295,725.862610 258.354065,725.925598 
	C245.234268,726.114624 232.108292,725.875183 218.799225,725.449219 
	C218.629639,725.230774 218.411819,725.083923 217.821686,724.117859 
M347.691132,709.688843 
	C347.874512,709.462769 347.965149,709.204163 348.096161,708.233826 
	C357.542297,693.169250 366.988464,678.104675 376.752655,662.733154 
	C376.477112,662.499451 376.201569,662.265747 375.001770,661.939453 
	C372.177399,661.843018 369.331543,661.934021 366.532776,661.613831 
	C359.142456,660.768311 354.723297,663.906372 351.376678,670.585754 
	C347.552277,678.218811 342.443298,685.208252 337.396820,693.269104 
	C335.763245,691.240173 334.665222,690.107178 333.833191,688.804199 
	C329.500305,682.019104 325.291260,675.154358 320.913757,668.398682 
	C319.507294,666.228088 317.913544,662.786987 316.068207,662.549744 
	C310.184296,661.793091 304.141815,662.269287 297.948120,662.269287 
	C298.213989,663.641296 298.176331,664.198181 298.416931,664.579468 
	C305.914551,676.463135 313.256042,688.451355 321.028564,700.153198 
	C325.682037,707.159058 329.015350,714.216003 327.908691,722.961731 
	C327.349396,727.382019 327.958282,731.937744 327.757385,736.419678 
	C327.605011,739.819153 328.873108,742.160034 332.266235,742.189636 
	C337.040314,742.231262 341.819977,741.635071 347.365875,741.259583 
	C347.365875,730.153076 347.365875,720.051941 347.691132,709.688843 
M1158.875000,663.758423 
	C1152.753052,673.431274 1146.630981,683.104126 1140.000122,693.580872 
	C1135.121094,685.872070 1130.074219,679.716858 1127.056641,672.690186 
	C1122.879639,662.963928 1115.618530,660.565063 1106.306152,661.065369 
	C1104.231934,661.176758 1102.188599,661.863647 1099.926147,662.327576 
	C1109.927856,678.196655 1119.498291,693.235229 1128.857178,708.404419 
	C1130.118530,710.448730 1130.841553,713.135376 1130.909424,715.550049 
	C1131.151855,724.169800 1131.004150,732.800537 1131.004150,741.263916 
	C1132.802979,741.750732 1134.061035,742.431091 1135.274292,742.358826 
	C1139.798950,742.089355 1144.641113,742.379272 1148.650635,740.727417 
	C1150.125488,740.119812 1149.687378,734.713013 1149.990967,731.482910 
	C1150.146118,729.832092 1150.239014,728.116760 1149.972046,726.494385 
	C1148.007446,714.556274 1152.665894,704.739990 1159.137085,695.161133 
	C1166.201416,684.704041 1172.578125,673.782410 1179.632568,662.810547 
	C1179.396118,662.550720 1179.159790,662.290833 1178.004761,661.886292 
	C1172.303589,661.903625 1166.602417,661.920959 1160.251465,661.867554 
	C1159.847534,662.273438 1159.443481,662.679321 1158.875000,663.758423 
M151.944473,696.111877 
	C141.637573,696.046448 131.330673,695.981018 120.801643,695.505676 
	C120.607208,695.248108 120.355469,695.072876 119.875023,694.541199 
	C119.875023,694.541199 119.942314,694.074951 120.104370,693.360168 
	C120.046730,692.878296 119.989090,692.396362 119.818199,690.996887 
	C119.809746,688.000549 120.084305,684.969727 119.724358,682.016235 
	C119.225082,677.919495 120.938423,676.787659 124.759445,676.857666 
	C135.245071,677.049866 145.735519,676.971069 156.223938,677.021545 
	C166.597778,677.071411 166.817627,676.808472 165.890976,666.442505 
	C165.616974,663.377319 164.500381,661.652283 161.040924,661.662659 
	C142.229462,661.719238 123.417458,661.671387 104.606064,661.577026 
	C101.840424,661.563171 100.690697,662.599060 100.773712,665.384521 
	C100.912537,670.042480 100.889748,674.705994 100.891609,679.367126 
	C100.899200,698.346558 101.001266,717.327026 100.809204,736.304565 
	C100.761414,741.026184 102.803528,742.880005 107.129349,742.746094 
	C109.890556,742.660583 112.639809,742.075623 115.398308,742.042908 
	C119.317192,741.996399 119.934181,739.652039 119.871071,736.479309 
	C119.755196,730.653992 119.883049,724.821350 119.659790,719.001282 
	C119.382988,711.785522 121.049667,711.137573 128.328568,711.985901 
	C136.081085,712.889526 144.040314,712.019897 152.542999,712.051697 
	C153.014343,711.697754 153.485672,711.343811 154.141907,710.076660 
	C154.074066,705.738281 154.006226,701.399963 153.829346,696.518982 
	C153.507874,696.380615 153.186401,696.242249 151.944473,696.111877 
M962.113464,661.822449 
	C941.427734,661.889709 920.741943,661.956970 899.402405,662.212219 
	C899.296936,662.843323 899.191467,663.474365 899.080139,664.920776 
	C898.755615,666.495117 898.116943,668.077942 898.159302,669.642395 
	C898.378174,677.717712 899.060913,685.789490 899.031067,693.860413 
	C898.993225,704.108032 898.295593,714.351685 898.139587,724.601013 
	C898.053650,730.251892 898.494385,735.910767 898.703857,741.739258 
	C920.002258,741.739258 940.124451,741.791931 960.244507,741.611328 
	C961.482544,741.600159 963.646667,739.847107 963.764160,738.733948 
	C964.192078,734.680908 963.933228,730.555359 963.933228,726.012207 
	C960.022217,726.012207 956.723328,726.037842 953.425049,726.007568 
	C941.963379,725.902283 930.501831,725.777588 919.057190,725.399841 
	C919.018494,725.206360 918.903076,725.087402 918.403442,724.160339 
	C918.605713,719.448364 918.808044,714.736328 919.668274,710.088867 
	C920.483643,709.849426 921.299011,709.610046 922.705872,709.311768 
	C923.100830,709.335266 923.495850,709.358704 924.589661,709.845398 
	C933.429749,709.682373 942.269836,709.519409 951.608948,709.210266 
	C951.776611,709.166260 951.944336,709.122314 952.688110,708.956177 
	C952.757263,708.593872 952.826416,708.231506 952.905273,706.954651 
	C952.905273,702.730042 952.905273,698.505432 952.905273,693.828186 
	C949.702332,693.828186 947.244751,693.852600 944.787842,693.823730 
	C936.216309,693.722961 927.644897,693.604004 919.140137,693.249268 
	C919.090149,693.053406 918.964417,692.962891 918.404968,692.119263 
	C918.369263,688.620911 918.472839,685.114014 918.258545,681.626648 
	C918.043823,678.131226 919.499084,676.968018 922.926575,677.008728 
	C934.422180,677.145081 945.920471,677.073486 957.417603,677.030151 
	C959.517944,677.022217 961.617371,676.773071 963.923889,676.621765 
	C963.923889,671.748901 963.923889,667.425842 963.999512,662.506226 
	C963.683289,662.321045 963.367065,662.135864 962.113464,661.822449 
M568.007385,664.020569 
	C567.989380,686.330566 567.977478,708.640564 567.950745,730.950562 
	C567.938049,741.539368 567.925171,741.539307 578.282959,742.823425 
	C586.545593,743.847839 587.017395,743.415344 587.016724,734.822266 
	C587.016235,728.399841 587.016602,721.977478 587.016602,715.151306 
	C591.862671,715.151306 595.998169,715.009583 600.111450,715.249573 
	C601.157166,715.310669 602.509460,716.363770 603.079285,717.336853 
	C607.356323,724.640625 611.388672,732.088379 615.703796,739.368774 
	C616.672180,741.002625 618.518677,743.384521 619.850159,743.314575 
	C625.561096,743.014587 631.230652,741.927612 637.298706,741.073486 
	C631.591492,731.448486 626.453064,722.782715 622.174988,715.567932 
	C626.473755,710.320740 629.957336,706.070740 633.438538,701.818726 
	C637.387634,696.995178 635.748901,691.322693 635.908569,685.900208 
	C636.301697,672.555969 632.535400,665.564392 619.110718,663.535583 
	C602.688538,661.053711 585.700195,662.318176 568.365601,662.035522 
	C568.267456,662.389404 568.169373,662.743347 568.007385,664.020569 
M533.082642,699.938538 
	C521.502502,699.938538 509.922394,699.938538 498.022827,699.938538 
	C498.022827,704.180115 498.106262,707.337891 498.001221,710.489319 
	C497.876617,714.226929 499.486511,716.032898 503.306732,715.926636 
	C506.892914,715.826782 510.484100,715.905212 515.423706,715.905212 
	C513.820862,718.586121 512.992676,720.246155 511.914490,721.723694 
	C508.499664,726.403625 502.964752,726.009949 498.190216,726.845520 
	C487.338806,728.744629 477.285156,724.338379 475.007629,712.441895 
	C473.809570,706.183899 473.457550,699.517761 474.179565,693.202332 
	C475.028595,685.775818 478.398376,678.912415 486.891602,677.679382 
	C492.819000,676.818909 499.047852,676.717957 504.968384,677.535400 
	C509.882935,678.213989 514.559387,680.632568 515.408569,686.783142 
	C515.512878,687.538757 517.053223,688.612793 517.967285,688.653198 
	C522.623779,688.859253 527.306519,688.960327 531.946594,688.629456 
	C532.850830,688.565002 534.460144,686.292236 534.299927,685.262695 
	C532.639954,674.597412 526.278442,667.802795 516.292786,664.071655 
	C506.061432,660.248657 495.416412,660.448730 484.894409,661.380066 
	C470.896851,662.619019 460.452759,669.630676 456.441040,683.579163 
	C453.771454,692.861145 453.569183,702.415649 455.009918,712.250549 
	C458.123474,733.504883 471.449585,741.085876 486.992065,742.617859 
	C496.001770,743.505920 505.439911,742.273132 514.422302,740.590881 
	C523.554749,738.880493 531.182373,733.576355 533.167236,723.844299 
	C534.669556,716.477966 534.385376,708.747314 534.936829,700.590576 
	C534.631897,700.388062 534.326965,700.185608 533.082642,699.938538 
M383.153076,382.596710 
	C383.153076,357.203644 383.153076,331.810608 383.153076,306.058502 
	C447.141785,306.058502 510.564697,306.058502 574.360962,306.516266 
	C575.108948,306.148712 575.856873,305.781128 576.604797,305.413544 
	C576.104614,304.929565 575.604370,304.445587 575.007935,303.033508 
	C574.987427,283.711273 574.830261,264.387512 575.046387,245.067902 
	C575.097900,240.457108 573.723694,239.135452 569.125671,239.141800 
	C482.174622,239.261703 395.223358,239.265015 308.272369,239.126175 
	C303.282562,239.118210 301.713989,240.473862 301.719208,245.573135 
	C301.828644,353.012695 301.770905,460.452454 301.771851,567.892151 
	C301.771881,570.138794 302.078217,572.385437 302.244873,574.676453 
	C304.667572,574.796265 306.487793,574.963318 308.308136,574.964661 
	C330.962067,574.981384 353.616028,574.994568 376.269897,574.960022 
	C382.954865,574.949829 382.955963,574.879944 382.955933,567.932678 
	C382.955688,531.619690 382.948181,495.306732 382.967773,458.993774 
	C382.969208,456.340332 383.165344,453.686981 383.620575,450.944366 
	C383.857727,450.828766 383.993408,450.640167 384.935577,450.150726 
	C432.025940,450.114471 479.116302,450.078217 526.681702,449.892029 
	C526.967957,449.652161 527.067749,449.350555 526.951172,448.051849 
	C526.951233,428.270142 526.957275,408.488434 526.942993,388.706726 
	C526.941345,386.490601 527.566772,383.838348 523.420105,383.111603 
	C521.179321,383.126434 518.938599,383.141266 515.812073,383.326813 
	C508.659363,383.276703 501.506653,383.226624 493.382507,382.948975 
	C481.084839,382.916626 468.786957,382.827759 456.489532,382.867432 
	C443.535797,382.909210 430.582489,383.073792 416.754547,383.371887 
	C406.256348,383.297455 395.758148,383.223053 384.585907,382.975494 
	C384.355499,383.002258 384.125092,383.029053 383.153076,382.596710 
M885.081360,353.422577 
	C885.403198,353.608612 885.725098,353.794678 886.978455,353.986450 
	C912.961060,353.977539 938.943665,353.968597 965.515564,353.938080 
	C965.665222,353.603699 965.814941,353.269318 965.976135,352.069458 
	C964.857300,344.924530 964.239929,337.657440 962.534241,330.655457 
	C954.416748,297.332794 934.760681,272.866547 904.683289,256.660553 
	C877.209412,241.857330 847.252441,236.666245 816.624390,235.425766 
	C800.089661,234.756073 783.458862,236.443756 766.871948,237.082718 
	C750.859070,237.699554 735.293213,241.174698 720.272827,246.272049 
	C688.155212,257.171539 663.261047,277.066864 647.577087,307.673431 
	C645.720398,311.296631 643.034241,314.541809 641.522156,318.281464 
	C639.974670,322.108856 639.504822,326.358948 638.374451,330.370850 
	C636.212891,338.042023 633.301025,345.560272 631.843567,353.355652 
	C630.250916,361.874207 629.429382,370.628571 629.326599,379.292633 
	C629.280334,383.194122 626.670471,387.046051 628.335327,391.076080 
	C628.027832,391.394165 627.720337,391.712250 627.412781,392.030273 
	C627.899414,392.361969 628.386047,392.693665 629.000610,393.951721 
	C628.955933,402.626038 628.911316,411.300323 628.148315,420.154175 
	C627.800659,421.512146 627.453003,422.870148 627.160767,424.994415 
	C627.793579,427.433624 628.809814,429.846893 628.976929,432.317596 
	C629.295288,437.024109 628.629456,441.834106 629.285950,446.471771 
	C630.169495,452.714203 631.765381,458.872925 633.324280,464.999207 
	C637.243958,480.402832 641.822205,495.527252 649.540527,509.618500 
	C659.478882,527.762756 672.473145,542.878418 690.069153,553.981018 
	C705.630554,563.799805 722.321228,570.627197 740.464172,573.752136 
	C752.991760,575.909912 765.490845,578.879089 778.115906,579.664429 
	C794.582336,580.688599 811.161438,579.987427 827.690735,579.858704 
	C832.099792,579.824341 836.562622,579.500793 840.898682,578.733215 
	C850.719421,576.994629 860.460449,574.811584 870.263123,572.964233 
	C886.452332,569.913391 901.646912,564.288025 915.839478,555.905945 
	C929.415833,547.887756 940.651489,537.455200 949.166382,524.138000 
	C961.096497,505.479279 965.325073,484.654480 965.783875,462.961243 
	C966.199524,443.306915 965.762390,423.635651 966.022156,403.976105 
	C966.082886,399.383301 964.176697,398.180878 960.185974,398.226562 
	C951.688538,398.323853 943.189758,398.326416 934.691528,398.323914 
	C895.865906,398.312469 857.040344,398.290375 818.214722,398.256470 
	C814.926392,398.253601 812.028137,397.958740 812.085327,402.976868 
	C812.301697,421.970398 812.231018,440.968872 812.066345,459.963776 
	C812.032288,463.883820 813.293701,465.104797 817.244324,465.067505 
	C835.905579,464.891418 854.569519,465.005554 873.232544,465.015472 
	C876.701294,465.017334 880.169983,465.015717 884.486816,465.015717 
	C883.449524,469.026855 882.917542,472.476044 881.676025,475.647430 
	C875.781799,490.703522 863.812378,499.389160 849.400879,504.929535 
	C826.328125,513.799683 802.470825,514.861755 778.194214,511.199982 
	C744.978882,506.189941 722.109314,485.062164 714.900574,452.566895 
	C708.127930,422.037415 707.720642,391.467560 715.060242,361.054749 
	C719.811462,341.367310 729.661133,324.771057 747.556213,313.910309 
	C758.418335,307.317932 770.302429,303.857941 782.809265,302.461761 
	C806.228333,299.847443 829.381836,300.889038 851.724121,309.079224 
	C873.263184,316.974976 884.617676,332.164062 885.081360,353.422577 
M675.211853,676.854980 
	C672.294067,684.121643 668.934875,691.183167 669.932190,699.491150 
	C670.410645,703.475952 668.644531,707.805054 669.442444,711.657654 
	C670.416565,716.360779 672.349487,721.191956 675.085632,725.119202 
	C678.352661,729.808167 682.450439,734.206787 687.007629,737.645386 
	C695.253174,743.866638 705.273743,742.690979 714.917114,742.934937 
	C724.479675,743.176880 733.232788,740.501709 740.205566,734.372131 
	C745.183533,729.996155 751.024353,724.326721 752.176331,718.398132 
	C753.978271,709.124695 752.890686,699.042358 751.598999,689.495972 
	C750.621948,682.275024 749.078186,674.295044 742.007141,669.963257 
	C735.461609,665.953552 728.418335,662.755554 721.581238,659.225403 
	C721.323059,659.092041 720.925049,659.199829 720.596802,659.236572 
	C715.109680,659.851318 709.635193,660.618408 704.134460,661.062561 
	C692.409912,662.009033 682.128052,665.535217 675.211853,676.854980 
M997.039978,705.500000 
	C997.039978,717.454712 997.039978,729.409485 997.039978,741.889893 
	C1001.727722,742.231018 1005.792847,742.832275 1009.841553,742.737183 
	C1014.053162,742.638306 1016.759766,740.937012 1016.387512,735.754089 
	C1015.926086,729.329468 1016.276917,722.846497 1016.276917,715.933228 
	C1020.362793,715.933228 1024.020508,715.632874 1027.590454,716.061951 
	C1029.333130,716.271423 1031.451538,717.455505 1032.459473,718.869019 
	C1034.988770,722.415955 1036.857178,726.425293 1039.219849,730.101807 
	C1042.723022,735.552734 1044.396484,743.148560 1053.367310,742.451172 
	C1057.454956,742.133301 1061.564575,742.099609 1066.661133,741.897522 
	C1061.642090,733.255554 1057.537109,725.960022 1053.187988,718.812927 
	C1051.490356,716.022949 1051.682007,713.747070 1054.266846,712.031738 
	C1063.111206,706.162598 1064.837646,697.446106 1065.035156,687.636780 
	C1065.391113,669.945984 1055.351685,662.112122 1040.021362,661.827393 
	C1027.531006,661.595398 1015.035156,661.644897 1002.541626,661.612427 
	C1000.800842,661.607910 999.059387,661.848572 997.041809,661.995911 
	C997.041809,676.555054 997.041809,690.527527 997.039978,705.500000 
M844.394592,663.049438 
	C836.009399,662.398560 827.604919,661.036255 819.243652,661.263916 
	C806.785645,661.603149 795.799072,665.711914 789.984619,677.992737 
	C787.761169,682.688965 785.000977,687.600525 784.608826,692.581116 
	C784.058899,699.567993 784.915955,706.818176 786.210815,713.761841 
	C788.145752,724.137878 792.765686,732.770569 802.764038,738.302307 
	C811.551819,743.164490 820.713623,742.622009 830.020508,742.924805 
	C838.731628,743.208069 846.763245,741.344543 854.395996,737.071899 
	C861.372864,733.166504 866.612061,723.435486 865.307190,715.024536 
	C857.720337,716.518066 848.183838,710.567078 843.249207,721.634399 
	C843.132141,721.896973 842.721130,722.021790 842.461121,722.228333 
	C837.200562,726.405884 831.052307,726.842529 824.608643,727.171631 
	C816.479797,727.586853 807.744385,721.884094 806.310364,713.661926 
	C805.132996,706.911438 804.405334,699.704346 805.482117,693.022583 
	C807.349670,681.432739 813.758362,675.781738 825.656494,676.865356 
	C827.475464,677.031067 829.323242,676.850098 831.153259,676.930420 
	C838.026733,677.231995 844.099976,678.813416 846.357300,686.504517 
	C846.571594,687.234558 847.187927,688.384583 847.673645,688.414001 
	C852.652527,688.715637 857.645508,689.000122 862.629272,688.926270 
	C865.768555,688.879700 866.036194,687.041382 865.417542,684.100037 
	C863.036682,672.779236 855.166443,666.989685 844.394592,663.049438 
z"/>
<path fill="#0F0DCD" opacity="1.000000" stroke="none" 
	d="
M628.907471,390.977905 
	C626.670471,387.046051 629.280334,383.194122 629.326599,379.292633 
	C629.429382,370.628571 630.250916,361.874207 631.843567,353.355652 
	C633.301025,345.560272 636.212891,338.042023 638.374451,330.370850 
	C639.504822,326.358948 639.974670,322.108856 641.522156,318.281464 
	C643.034241,314.541809 645.720398,311.296631 647.577087,307.673431 
	C663.261047,277.066864 688.155212,257.171539 720.272827,246.272049 
	C735.293213,241.174698 750.859070,237.699554 766.871948,237.082718 
	C783.458862,236.443756 800.089661,234.756073 816.624390,235.425766 
	C847.252441,236.666245 877.209412,241.857330 904.683289,256.660553 
	C934.760681,272.866547 954.416748,297.332794 962.534241,330.655457 
	C964.239929,337.657440 964.857300,344.924530 965.732422,352.596619 
	C965.301208,353.402405 965.113770,353.681030 964.926270,353.959686 
	C938.943665,353.968597 912.961060,353.977539 886.416504,353.745331 
	C885.602234,353.276489 885.349976,353.048737 885.097717,352.821014 
	C884.617676,332.164062 873.263184,316.974976 851.724121,309.079224 
	C829.381836,300.889038 806.228333,299.847443 782.809265,302.461761 
	C770.302429,303.857941 758.418335,307.317932 747.556213,313.910309 
	C729.661133,324.771057 719.811462,341.367310 715.060242,361.054749 
	C707.720642,391.467560 708.127930,422.037415 714.900574,452.566895 
	C722.109314,485.062164 744.978882,506.189941 778.194214,511.199982 
	C802.470825,514.861755 826.328125,513.799683 849.400879,504.929535 
	C863.812378,499.389160 875.781799,490.703522 881.676025,475.647430 
	C882.917542,472.476044 883.449524,469.026855 884.486816,465.015717 
	C880.169983,465.015717 876.701294,465.017334 873.232544,465.015472 
	C854.569519,465.005554 835.905579,464.891418 817.244324,465.067505 
	C813.293701,465.104797 812.032288,463.883820 812.066345,459.963776 
	C812.231018,440.968872 812.301697,421.970398 812.085327,402.976868 
	C812.028137,397.958740 814.926392,398.253601 818.214722,398.256470 
	C857.040344,398.290375 895.865906,398.312469 934.691528,398.323914 
	C943.189758,398.326416 951.688538,398.323853 960.185974,398.226562 
	C964.176697,398.180878 966.082886,399.383301 966.022156,403.976105 
	C965.762390,423.635651 966.199524,443.306915 965.783875,462.961243 
	C965.325073,484.654480 961.096497,505.479279 949.166382,524.138000 
	C940.651489,537.455200 929.415833,547.887756 915.839478,555.905945 
	C901.646912,564.288025 886.452332,569.913391 870.263123,572.964233 
	C860.460449,574.811584 850.719421,576.994629 840.898682,578.733215 
	C836.562622,579.500793 832.099792,579.824341 827.690735,579.858704 
	C811.161438,579.987427 794.582336,580.688599 778.115906,579.664429 
	C765.490845,578.879089 752.991760,575.909912 740.464172,573.752136 
	C722.321228,570.627197 705.630554,563.799805 690.069153,553.981018 
	C672.473145,542.878418 659.478882,527.762756 649.540527,509.618500 
	C641.822205,495.527252 637.243958,480.402832 633.324280,464.999207 
	C631.765381,458.872925 630.169495,452.714203 629.285950,446.471771 
	C628.629456,441.834106 629.295288,437.024109 628.976929,432.317596 
	C628.809814,429.846893 627.793579,427.433624 627.535767,424.563171 
	C628.229370,422.746124 628.547974,421.360382 628.866577,419.974640 
	C628.911316,411.300323 628.955933,402.626038 629.042725,393.154144 
	C629.025757,391.897003 628.966614,391.437469 628.907471,390.977905 
z"/>
<path fill="#0F0DCD" opacity="1.000000" stroke="none" 
	d="
M573.987610,306.058502 
	C510.564697,306.058502 447.141785,306.058502 383.153076,306.058502 
	C383.153076,331.810608 383.153076,357.203644 383.652008,382.984009 
	C384.520599,383.297089 384.890289,383.222870 385.259949,383.148651 
	C395.758148,383.223053 406.256348,383.297455 417.592773,383.451355 
	C441.941895,383.567169 465.452820,383.613770 488.963715,383.619476 
	C490.760437,383.619904 492.557190,383.330933 494.353943,383.176514 
	C501.506653,383.226624 508.659363,383.276703 516.625977,383.402222 
	C519.626343,383.544983 521.812866,383.612335 523.999390,383.679688 
	C527.566772,383.838348 526.941345,386.490601 526.942993,388.706726 
	C526.957275,408.488434 526.951233,428.270142 526.793457,448.660980 
	C526.419067,449.486481 526.276062,449.743744 526.206665,450.041931 
	C479.116302,450.078217 432.025940,450.114471 384.253723,450.193024 
	C383.203339,450.400208 383.103027,450.666321 383.270966,451.033600 
	C383.165344,453.686981 382.969208,456.340332 382.967773,458.993774 
	C382.948181,495.306732 382.955688,531.619690 382.955933,567.932678 
	C382.955963,574.879944 382.954865,574.949829 376.269897,574.960022 
	C353.616028,574.994568 330.962067,574.981384 308.308136,574.964661 
	C306.487793,574.963318 304.667572,574.796265 302.244873,574.676453 
	C302.078217,572.385437 301.771881,570.138794 301.771851,567.892151 
	C301.770905,460.452454 301.828644,353.012695 301.719208,245.573135 
	C301.713989,240.473862 303.282562,239.118210 308.272369,239.126175 
	C395.223358,239.265015 482.174622,239.261703 569.125671,239.141800 
	C573.723694,239.135452 575.097900,240.457108 575.046387,245.067902 
	C574.830261,264.387512 574.987427,283.711273 574.916748,303.761169 
	C574.546204,305.012054 574.266907,305.535278 573.987610,306.058502 
z"/>
<path fill="#1715CA" opacity="1.000000" stroke="none" 
	d="
M534.896240,701.178772 
	C534.385376,708.747314 534.669556,716.477966 533.167236,723.844299 
	C531.182373,733.576355 523.554749,738.880493 514.422302,740.590881 
	C505.439911,742.273132 496.001770,743.505920 486.992065,742.617859 
	C471.449585,741.085876 458.123474,733.504883 455.009918,712.250549 
	C453.569183,702.415649 453.771454,692.861145 456.441040,683.579163 
	C460.452759,669.630676 470.896851,662.619019 484.894409,661.380066 
	C495.416412,660.448730 506.061432,660.248657 516.292786,664.071655 
	C526.278442,667.802795 532.639954,674.597412 534.299927,685.262695 
	C534.460144,686.292236 532.850830,688.565002 531.946594,688.629456 
	C527.306519,688.960327 522.623779,688.859253 517.967285,688.653198 
	C517.053223,688.612793 515.512878,687.538757 515.408569,686.783142 
	C514.559387,680.632568 509.882935,678.213989 504.968384,677.535400 
	C499.047852,676.717957 492.819000,676.818909 486.891602,677.679382 
	C478.398376,678.912415 475.028595,685.775818 474.179565,693.202332 
	C473.457550,699.517761 473.809570,706.183899 475.007629,712.441895 
	C477.285156,724.338379 487.338806,728.744629 498.190216,726.845520 
	C502.964752,726.009949 508.499664,726.403625 511.914490,721.723694 
	C512.992676,720.246155 513.820862,718.586121 515.423706,715.905212 
	C510.484100,715.905212 506.892914,715.826782 503.306732,715.926636 
	C499.486511,716.032898 497.876617,714.226929 498.001221,710.489319 
	C498.106262,707.337891 498.022827,704.180115 498.022827,699.938538 
	C509.922394,699.938538 521.502502,699.938538 533.643433,700.195923 
	C534.434875,700.695129 534.665588,700.936951 534.896240,701.178772 
z"/>
<path fill="#1614CA" opacity="1.000000" stroke="none" 
	d="
M675.410461,676.536011 
	C682.128052,665.535217 692.409912,662.009033 704.134460,661.062561 
	C709.635193,660.618408 715.109680,659.851318 720.596802,659.236572 
	C720.925049,659.199829 721.323059,659.092041 721.581238,659.225403 
	C728.418335,662.755554 735.461609,665.953552 742.007141,669.963257 
	C749.078186,674.295044 750.621948,682.275024 751.598999,689.495972 
	C752.890686,699.042358 753.978271,709.124695 752.176331,718.398132 
	C751.024353,724.326721 745.183533,729.996155 740.205566,734.372131 
	C733.232788,740.501709 724.479675,743.176880 714.917114,742.934937 
	C705.273743,742.690979 695.253174,743.866638 687.007629,737.645386 
	C682.450439,734.206787 678.352661,729.808167 675.085632,725.119202 
	C672.349487,721.191956 670.416565,716.360779 669.442444,711.657654 
	C668.644531,707.805054 670.410645,703.475952 669.932190,699.491150 
	C668.934875,691.183167 672.294067,684.121643 675.410461,676.536011 
M706.335327,676.537842 
	C698.225098,677.342712 692.670532,681.983093 691.285339,689.607300 
	C690.003479,696.663025 690.164551,704.149963 690.822937,711.343384 
	C691.536682,719.141968 696.327698,724.775208 704.129517,726.316040 
	C712.529236,727.974915 721.135925,728.414246 727.951904,721.463074 
	C729.099121,720.293091 730.194519,718.917725 730.835510,717.430969 
	C734.972412,707.835876 735.190979,697.894592 731.817139,688.191956 
	C728.429871,678.450317 720.409058,674.937500 706.335327,676.537842 
z"/>
<path fill="#1513C9" opacity="1.000000" stroke="none" 
	d="
M568.956665,661.962769 
	C585.700195,662.318176 602.688538,661.053711 619.110718,663.535583 
	C632.535400,665.564392 636.301697,672.555969 635.908569,685.900208 
	C635.748901,691.322693 637.387634,696.995178 633.438538,701.818726 
	C629.957336,706.070740 626.473755,710.320740 622.174988,715.567932 
	C626.453064,722.782715 631.591492,731.448486 637.298706,741.073486 
	C631.230652,741.927612 625.561096,743.014587 619.850159,743.314575 
	C618.518677,743.384521 616.672180,741.002625 615.703796,739.368774 
	C611.388672,732.088379 607.356323,724.640625 603.079285,717.336853 
	C602.509460,716.363770 601.157166,715.310669 600.111450,715.249573 
	C595.998169,715.009583 591.862671,715.151306 587.016602,715.151306 
	C587.016602,721.977478 587.016235,728.399841 587.016724,734.822266 
	C587.017395,743.415344 586.545593,743.847839 578.282959,742.823425 
	C567.925171,741.539307 567.938049,741.539368 567.950745,730.950562 
	C567.977478,708.640564 567.989380,686.330566 568.245850,663.420044 
	C568.743835,662.590210 568.901306,662.304626 568.956665,661.962769 
M586.985229,682.677490 
	C586.985229,688.229919 586.985229,693.782288 586.985229,699.724548 
	C594.929199,699.724548 602.033875,699.805359 609.135681,699.696533 
	C613.987244,699.622192 616.193665,696.456116 616.859558,692.121094 
	C617.208191,689.851318 617.153320,687.474487 616.953247,685.174561 
	C616.499756,679.963257 613.444641,677.078186 608.170593,676.971313 
	C602.536194,676.857117 596.891235,677.152771 591.261597,676.959167 
	C587.620728,676.833984 586.554382,678.472656 586.985229,682.677490 
z"/>
<path fill="#1413CA" opacity="1.000000" stroke="none" 
	d="
M997.040894,705.000000 
	C997.041809,690.527527 997.041809,676.555054 997.041809,661.995911 
	C999.059387,661.848572 1000.800842,661.607910 1002.541626,661.612427 
	C1015.035156,661.644897 1027.531006,661.595398 1040.021362,661.827393 
	C1055.351685,662.112122 1065.391113,669.945984 1065.035156,687.636780 
	C1064.837646,697.446106 1063.111206,706.162598 1054.266846,712.031738 
	C1051.682007,713.747070 1051.490356,716.022949 1053.187988,718.812927 
	C1057.537109,725.960022 1061.642090,733.255554 1066.661133,741.897522 
	C1061.564575,742.099609 1057.454956,742.133301 1053.367310,742.451172 
	C1044.396484,743.148560 1042.723022,735.552734 1039.219849,730.101807 
	C1036.857178,726.425293 1034.988770,722.415955 1032.459473,718.869019 
	C1031.451538,717.455505 1029.333130,716.271423 1027.590454,716.061951 
	C1024.020508,715.632874 1020.362793,715.933228 1016.276917,715.933228 
	C1016.276917,722.846497 1015.926086,729.329468 1016.387512,735.754089 
	C1016.759766,740.937012 1014.053162,742.638306 1009.841553,742.737183 
	C1005.792847,742.832275 1001.727722,742.231018 997.039978,741.889893 
	C997.039978,729.409485 997.039978,717.454712 997.040894,705.000000 
M1046.049194,692.003540 
	C1046.113403,690.342896 1046.303101,688.675964 1046.220093,687.022705 
	C1045.840088,679.457825 1043.272949,676.989868 1035.726074,676.949524 
	C1030.564575,676.921875 1025.399902,677.116577 1020.241638,676.996521 
	C1017.169983,676.925110 1016.124512,678.222168 1016.201660,681.170959 
	C1016.327881,685.996277 1016.354919,690.834167 1016.145752,695.654724 
	C1015.998108,699.055908 1017.498718,699.949463 1020.624939,699.840576 
	C1025.947266,699.655090 1031.283203,699.665771 1036.607910,699.805115 
	C1041.640259,699.936829 1044.948364,698.020203 1046.049194,692.003540 
z"/>
<path fill="#1412C9" opacity="1.000000" stroke="none" 
	d="
M919.073486,693.491882 
	C927.644897,693.604004 936.216309,693.722961 944.787842,693.823730 
	C947.244751,693.852600 949.702332,693.828186 952.905273,693.828186 
	C952.905273,698.505432 952.905273,702.730042 952.715576,707.578369 
	C952.259399,708.433533 952.121460,708.725586 952.112000,709.078369 
	C951.944336,709.122314 951.776611,709.166260 950.904175,709.131592 
	C941.429932,709.162659 932.660339,709.272461 923.890808,709.382202 
	C923.495850,709.358704 923.100830,709.335266 922.085693,709.178955 
	C920.647156,709.372131 919.828735,709.698242 919.010376,710.024353 
	C918.808044,714.736328 918.605713,719.448364 918.430542,724.745483 
	C918.528748,725.657776 918.722961,725.767639 919.040283,725.660278 
	C930.501831,725.777588 941.963379,725.902283 953.425049,726.007568 
	C956.723328,726.037842 960.022217,726.012207 963.933228,726.012207 
	C963.933228,730.555359 964.192078,734.680908 963.764160,738.733948 
	C963.646667,739.847107 961.482544,741.600159 960.244507,741.611328 
	C940.124451,741.791931 920.002258,741.739258 898.703857,741.739258 
	C898.494385,735.910767 898.053650,730.251892 898.139587,724.601013 
	C898.295593,714.351685 898.993225,704.108032 899.031067,693.860413 
	C899.060913,685.789490 898.378174,677.717712 898.159302,669.642395 
	C898.116943,668.077942 898.755615,666.495117 899.256897,664.279419 
	C899.641174,663.100098 899.848694,662.562134 900.056213,662.024170 
	C920.741943,661.956970 941.427734,661.889709 962.680115,662.110474 
	C963.446838,662.657959 963.672546,662.892700 963.923889,663.102783 
	C963.923889,667.425842 963.923889,671.748901 963.923889,676.621765 
	C961.617371,676.773071 959.517944,677.022217 957.417603,677.030151 
	C945.920471,677.073486 934.422180,677.145081 922.926575,677.008728 
	C919.499084,676.968018 918.043823,678.131226 918.258545,681.626648 
	C918.472839,685.114014 918.369263,688.620911 918.472046,692.682251 
	C918.539062,693.245300 918.727661,693.538574 918.727661,693.538574 
	C918.727661,693.538574 919.073486,693.491882 919.073486,693.491882 
z"/>
<path fill="#1716C9" opacity="1.000000" stroke="none" 
	d="
M844.799683,663.073730 
	C855.166443,666.989685 863.036682,672.779236 865.417542,684.100037 
	C866.036194,687.041382 865.768555,688.879700 862.629272,688.926270 
	C857.645508,689.000122 852.652527,688.715637 847.673645,688.414001 
	C847.187927,688.384583 846.571594,687.234558 846.357300,686.504517 
	C844.099976,678.813416 838.026733,677.231995 831.153259,676.930420 
	C829.323242,676.850098 827.475464,677.031067 825.656494,676.865356 
	C813.758362,675.781738 807.349670,681.432739 805.482117,693.022583 
	C804.405334,699.704346 805.132996,706.911438 806.310364,713.661926 
	C807.744385,721.884094 816.479797,727.586853 824.608643,727.171631 
	C831.052307,726.842529 837.200562,726.405884 842.461121,722.228333 
	C842.721130,722.021790 843.132141,721.896973 843.249207,721.634399 
	C848.183838,710.567078 857.720337,716.518066 865.307190,715.024536 
	C866.612061,723.435486 861.372864,733.166504 854.395996,737.071899 
	C846.763245,741.344543 838.731628,743.208069 830.020508,742.924805 
	C820.713623,742.622009 811.551819,743.164490 802.764038,738.302307 
	C792.765686,732.770569 788.145752,724.137878 786.210815,713.761841 
	C784.915955,706.818176 784.058899,699.567993 784.608826,692.581116 
	C785.000977,687.600525 787.761169,682.688965 789.984619,677.992737 
	C795.799072,665.711914 806.785645,661.603149 819.243652,661.263916 
	C827.604919,661.036255 836.009399,662.398560 844.799683,663.073730 
z"/>
<path fill="#1614C8" opacity="1.000000" stroke="none" 
	d="
M153.938400,697.061584 
	C154.006226,701.399963 154.074066,705.738281 153.767578,710.577820 
	C152.898605,711.360779 152.403961,711.642639 151.909302,711.924500 
	C144.040314,712.019897 136.081085,712.889526 128.328568,711.985901 
	C121.049667,711.137573 119.382988,711.785522 119.659790,719.001282 
	C119.883049,724.821350 119.755196,730.653992 119.871071,736.479309 
	C119.934181,739.652039 119.317192,741.996399 115.398308,742.042908 
	C112.639809,742.075623 109.890556,742.660583 107.129349,742.746094 
	C102.803528,742.880005 100.761414,741.026184 100.809204,736.304565 
	C101.001266,717.327026 100.899200,698.346558 100.891609,679.367126 
	C100.889748,674.705994 100.912537,670.042480 100.773712,665.384521 
	C100.690697,662.599060 101.840424,661.563171 104.606064,661.577026 
	C123.417458,661.671387 142.229462,661.719238 161.040924,661.662659 
	C164.500381,661.652283 165.616974,663.377319 165.890976,666.442505 
	C166.817627,676.808472 166.597778,677.071411 156.223938,677.021545 
	C145.735519,676.971069 135.245071,677.049866 124.759445,676.857666 
	C120.938423,676.787659 119.225082,677.919495 119.724358,682.016235 
	C120.084305,684.969727 119.809746,688.000549 119.733627,691.649780 
	C119.746819,692.893433 119.844566,693.484192 119.942314,694.074951 
	C119.942314,694.074951 119.875023,694.541199 119.936874,695.057007 
	C120.340408,695.687134 120.682083,695.801392 121.023758,695.915649 
	C131.330673,695.981018 141.637573,696.046448 152.519730,696.330688 
	C153.376114,696.720215 153.657257,696.890869 153.938400,697.061584 
z"/>
<path fill="#1715C9" opacity="1.000000" stroke="none" 
	d="
M1179.254639,663.063293 
	C1172.578125,673.782410 1166.201416,684.704041 1159.137085,695.161133 
	C1152.665894,704.739990 1148.007446,714.556274 1149.972046,726.494385 
	C1150.239014,728.116760 1150.146118,729.832092 1149.990967,731.482910 
	C1149.687378,734.713013 1150.125488,740.119812 1148.650635,740.727417 
	C1144.641113,742.379272 1139.798950,742.089355 1135.274292,742.358826 
	C1134.061035,742.431091 1132.802979,741.750732 1131.004150,741.263916 
	C1131.004150,732.800537 1131.151855,724.169800 1130.909424,715.550049 
	C1130.841553,713.135376 1130.118530,710.448730 1128.857178,708.404419 
	C1119.498291,693.235229 1109.927856,678.196655 1099.926147,662.327576 
	C1102.188599,661.863647 1104.231934,661.176758 1106.306152,661.065369 
	C1115.618530,660.565063 1122.879639,662.963928 1127.056641,672.690186 
	C1130.074219,679.716858 1135.121094,685.872070 1140.000122,693.580872 
	C1146.630981,683.104126 1152.753052,673.431274 1159.194092,663.264648 
	C1159.975830,662.493286 1160.438477,662.215759 1160.901245,661.938232 
	C1166.602417,661.920959 1172.303589,661.903625 1178.503662,662.230591 
	C1179.086670,662.737671 1179.170654,662.900513 1179.254639,663.063293 
z"/>
<path fill="#1716CA" opacity="1.000000" stroke="none" 
	d="
M376.434570,663.040100 
	C366.988464,678.104675 357.542297,693.169250 347.845367,708.692749 
	C347.336945,709.366211 347.260712,709.632629 347.365875,709.950867 
	C347.365875,720.051941 347.365875,730.153076 347.365875,741.259583 
	C341.819977,741.635071 337.040314,742.231262 332.266235,742.189636 
	C328.873108,742.160034 327.605011,739.819153 327.757385,736.419678 
	C327.958282,731.937744 327.349396,727.382019 327.908691,722.961731 
	C329.015350,714.216003 325.682037,707.159058 321.028564,700.153198 
	C313.256042,688.451355 305.914551,676.463135 298.416931,664.579468 
	C298.176331,664.198181 298.213989,663.641296 297.948120,662.269287 
	C304.141815,662.269287 310.184296,661.793091 316.068207,662.549744 
	C317.913544,662.786987 319.507294,666.228088 320.913757,668.398682 
	C325.291260,675.154358 329.500305,682.019104 333.833191,688.804199 
	C334.665222,690.107178 335.763245,691.240173 337.396820,693.269104 
	C342.443298,685.208252 347.552277,678.218811 351.376678,670.585754 
	C354.723297,663.906372 359.142456,660.768311 366.532776,661.613831 
	C369.331543,661.934021 372.177399,661.843018 375.538971,662.264038 
	C376.195648,662.739136 376.315094,662.889648 376.434570,663.040100 
z"/>
<path fill="#1816C8" opacity="1.000000" stroke="none" 
	d="
M199.890411,661.946716 
	C205.335266,661.946716 210.780121,661.946716 216.757217,661.946716 
	C217.095139,665.024170 217.669907,667.916016 217.688538,670.811401 
	C217.802826,688.579834 217.791306,706.348938 217.955200,724.820923 
	C218.387405,725.616882 218.686081,725.709900 218.984741,725.802917 
	C232.108292,725.875183 245.234268,726.114624 258.354065,725.925598 
	C262.727295,725.862610 264.565948,727.146362 263.895325,731.575562 
	C263.698456,732.875916 263.771881,734.238770 263.880371,735.559937 
	C264.254761,740.119019 262.605469,741.996338 257.654785,741.871216 
	C243.857651,741.522705 230.047501,741.684692 216.242462,741.653625 
	C210.771439,741.641357 205.300354,741.651611 198.983353,741.651611 
	C198.983353,715.742004 198.983353,689.858582 199.199524,663.372925 
	C199.660416,662.545837 199.818649,662.271179 199.890411,661.946716 
z"/>
<path fill="#DAD7EF" opacity="1.000000" stroke="none" 
	d="
M493.868225,383.062744 
	C492.557190,383.330933 490.760437,383.619904 488.963715,383.619476 
	C465.452820,383.613770 441.941895,383.567169 418.029999,383.357788 
	C430.582489,383.073792 443.535797,382.909210 456.489532,382.867432 
	C468.786957,382.827759 481.084839,382.916626 493.868225,383.062744 
z"/>
<path fill="#A6A3DC" opacity="1.000000" stroke="none" 
	d="
M924.240234,709.613770 
	C932.660339,709.272461 941.429932,709.162659 950.654663,709.204651 
	C942.269836,709.519409 933.429749,709.682373 924.240234,709.613770 
z"/>
<path fill="#E8E6F5" opacity="1.000000" stroke="none" 
	d="
M628.507446,420.064392 
	C628.547974,421.360382 628.229370,422.746124 627.508057,424.179993 
	C627.453003,422.870148 627.800659,421.512146 628.507446,420.064392 
z"/>
<path fill="#DAD7EF" opacity="1.000000" stroke="none" 
	d="
M574.174316,306.287384 
	C574.266907,305.535278 574.546204,305.012054 574.964844,304.225220 
	C575.604370,304.445587 576.104614,304.929565 576.604797,305.413574 
	C575.856873,305.781128 575.108948,306.148712 574.174316,306.287384 
z"/>
<path fill="#DAD7EF" opacity="1.000000" stroke="none" 
	d="
M523.709717,383.395630 
	C521.812866,383.612335 519.626343,383.544983 517.068848,383.316833 
	C518.938599,383.141266 521.179321,383.126434 523.709717,383.395630 
z"/>
<path fill="#E8E6F5" opacity="1.000000" stroke="none" 
	d="
M628.621399,391.026978 
	C628.966614,391.437469 629.025757,391.897003 628.978760,392.690979 
	C628.386047,392.693665 627.899414,392.361969 627.412781,392.030304 
	C627.720337,391.712250 628.027832,391.394165 628.621399,391.026978 
z"/>
<path fill="#A6A3DC" opacity="1.000000" stroke="none" 
	d="
M919.339355,710.056641 
	C919.828735,709.698242 920.647156,709.372131 921.789917,709.208374 
	C921.299011,709.610046 920.483643,709.849426 919.339355,710.056641 
z"/>
<path fill="#A6A3DC" opacity="1.000000" stroke="none" 
	d="
M899.729309,662.118225 
	C899.848694,662.562134 899.641174,663.100098 899.259827,663.871704 
	C899.191467,663.474365 899.296936,662.843323 899.729309,662.118225 
z"/>
<path fill="#C8C5E5" opacity="1.000000" stroke="none" 
	d="
M1160.576416,661.902893 
	C1160.438477,662.215759 1159.975830,662.493286 1159.276367,662.927979 
	C1159.443481,662.679321 1159.847534,662.273438 1160.576416,661.902893 
z"/>
<path fill="#DAD7EF" opacity="1.000000" stroke="none" 
	d="
M152.226151,711.988098 
	C152.403961,711.642639 152.898605,711.360779 153.675125,711.034424 
	C153.485672,711.343811 153.014343,711.697754 152.226151,711.988098 
z"/>
<path fill="#DAD7EF" opacity="1.000000" stroke="none" 
	d="
M120.023346,693.717529 
	C119.844566,693.484192 119.746819,692.893433 119.790253,692.108582 
	C119.989090,692.396362 120.046730,692.878296 120.023346,693.717529 
z"/>
<path fill="#F8F8FC" opacity="1.000000" stroke="none" 
	d="
M347.528503,709.819824 
	C347.260712,709.632629 347.336945,709.366211 347.778809,709.032349 
	C347.965149,709.204163 347.874512,709.462769 347.528503,709.819824 
z"/>
<path fill="#A6A3DC" opacity="1.000000" stroke="none" 
	d="
M952.400024,709.017273 
	C952.121460,708.725586 952.259399,708.433533 952.710693,708.035645 
	C952.826416,708.231506 952.757263,708.593872 952.400024,709.017273 
z"/>
<path fill="#C8C5E5" opacity="1.000000" stroke="none" 
	d="
M534.916504,700.884644 
	C534.665588,700.936951 534.434875,700.695129 534.113159,700.218262 
	C534.326965,700.185608 534.631897,700.388062 534.916504,700.884644 
z"/>
<path fill="#F7F6FC" opacity="1.000000" stroke="none" 
	d="
M218.891983,725.626099 
	C218.686081,725.709900 218.387405,725.616882 218.117249,725.266235 
	C218.411819,725.083923 218.629639,725.230774 218.891983,725.626099 
z"/>
<path fill="#DAD7EF" opacity="1.000000" stroke="none" 
	d="
M919.048706,725.530029 
	C918.722961,725.767639 918.528748,725.657776 918.584229,725.186890 
	C918.903076,725.087402 919.018494,725.206360 919.048706,725.530029 
z"/>
<path fill="#DAD7EF" opacity="1.000000" stroke="none" 
	d="
M153.883881,696.790283 
	C153.657257,696.890869 153.376114,696.720215 152.979950,696.326721 
	C153.186401,696.242249 153.507874,696.380615 153.883881,696.790283 
z"/>
<path fill="#DAD7EF" opacity="1.000000" stroke="none" 
	d="
M120.912697,695.710693 
	C120.682083,695.801392 120.340408,695.687134 120.022583,695.276489 
	C120.355469,695.072876 120.607208,695.248108 120.912697,695.710693 
z"/>
<path fill="#C8C5E5" opacity="1.000000" stroke="none" 
	d="
M919.106812,693.370605 
	C919.073486,693.491882 918.727661,693.538574 918.727661,693.538574 
	C918.727661,693.538574 918.539062,693.245300 918.651001,693.111572 
	C918.964417,692.962891 919.090149,693.053406 919.106812,693.370605 
z"/>
<path fill="#C8C5E5" opacity="1.000000" stroke="none" 
	d="
M1179.443604,662.936890 
	C1179.170654,662.900513 1179.086670,662.737671 1178.963013,662.302917 
	C1179.159790,662.290833 1179.396118,662.550720 1179.443604,662.936890 
z"/>
<path fill="#A6A3DC" opacity="1.000000" stroke="none" 
	d="
M963.961670,662.804504 
	C963.672546,662.892700 963.446838,662.657959 963.148804,662.174622 
	C963.367065,662.135864 963.683289,662.321045 963.961670,662.804504 
z"/>
<path fill="#A6A3DC" opacity="1.000000" stroke="none" 
	d="
M568.661133,661.999146 
	C568.901306,662.304626 568.743835,662.590210 568.277710,662.958374 
	C568.169373,662.743347 568.267456,662.389404 568.661133,661.999146 
z"/>
<path fill="#C8C5E5" opacity="1.000000" stroke="none" 
	d="
M376.593628,662.886597 
	C376.315094,662.889648 376.195648,662.739136 376.001099,662.310364 
	C376.201569,662.265747 376.477112,662.499451 376.593628,662.886597 
z"/>
<path fill="#C8C5E5" opacity="1.000000" stroke="none" 
	d="
M199.624268,662.008301 
	C199.818649,662.271179 199.660416,662.545837 199.216980,662.906982 
	C199.131546,662.718811 199.244843,662.394348 199.624268,662.008301 
z"/>
<path fill="#DAD7EF" opacity="1.000000" stroke="none" 
	d="
M383.445770,450.988983 
	C383.103027,450.666321 383.203339,450.400208 383.799744,450.306946 
	C383.993408,450.640167 383.857727,450.828766 383.445770,450.988983 
z"/>
<path fill="#DAD7EF" opacity="1.000000" stroke="none" 
	d="
M526.444214,449.966980 
	C526.276062,449.743744 526.419067,449.486481 526.808350,449.128662 
	C527.067749,449.350555 526.967957,449.652161 526.444214,449.966980 
z"/>
<path fill="#DAD7EF" opacity="1.000000" stroke="none" 
	d="
M384.922913,383.062073 
	C384.890289,383.222870 384.520599,383.297089 384.022797,383.213593 
	C384.125092,383.029053 384.355499,383.002258 384.922913,383.062073 
z"/>
<path fill="#C8C5E5" opacity="1.000000" stroke="none" 
	d="
M965.220947,353.948883 
	C965.113770,353.681030 965.301208,353.402405 965.726685,353.029358 
	C965.814941,353.269318 965.665222,353.603699 965.220947,353.948883 
z"/>
<path fill="#C8C5E5" opacity="1.000000" stroke="none" 
	d="
M885.089539,353.121796 
	C885.349976,353.048737 885.602234,353.276489 885.950745,353.742493 
	C885.725098,353.794678 885.403198,353.608612 885.089539,353.121796 
z"/>
<path fill="#FCFCFE" opacity="1.000000" stroke="none" 
	d="
M706.749390,676.413513 
	C720.409058,674.937500 728.429871,678.450317 731.817139,688.191956 
	C735.190979,697.894592 734.972412,707.835876 730.835510,717.430969 
	C730.194519,718.917725 729.099121,720.293091 727.951904,721.463074 
	C721.135925,728.414246 712.529236,727.974915 704.129517,726.316040 
	C696.327698,724.775208 691.536682,719.141968 690.822937,711.343384 
	C690.164551,704.149963 690.003479,696.663025 691.285339,689.607300 
	C692.670532,681.983093 698.225098,677.342712 706.749390,676.413513 
z"/>
<path fill="#F8F8FC" opacity="1.000000" stroke="none" 
	d="
M586.983521,682.201721 
	C586.554382,678.472656 587.620728,676.833984 591.261597,676.959167 
	C596.891235,677.152771 602.536194,676.857117 608.170593,676.971313 
	C613.444641,677.078186 616.499756,679.963257 616.953247,685.174561 
	C617.153320,687.474487 617.208191,689.851318 616.859558,692.121094 
	C616.193665,696.456116 613.987244,699.622192 609.135681,699.696533 
	C602.033875,699.805359 594.929199,699.724548 586.985229,699.724548 
	C586.985229,693.782288 586.985229,688.229919 586.983521,682.201721 
z"/>
<path fill="#F7F6FC" opacity="1.000000" stroke="none" 
	d="
M1045.998535,692.432007 
	C1044.948364,698.020203 1041.640259,699.936829 1036.607910,699.805115 
	C1031.283203,699.665771 1025.947266,699.655090 1020.624939,699.840576 
	C1017.498718,699.949463 1015.998108,699.055908 1016.145752,695.654724 
	C1016.354919,690.834167 1016.327881,685.996277 1016.201660,681.170959 
	C1016.124512,678.222168 1017.169983,676.925110 1020.241638,676.996521 
	C1025.399902,677.116577 1030.564575,676.921875 1035.726074,676.949524 
	C1043.272949,676.989868 1045.840088,679.457825 1046.220093,687.022705 
	C1046.303101,688.675964 1046.113403,690.342896 1045.998535,692.432007 
z"/>
</svg>