<svg version="1.1" id="Layer_1" xmlns="http://www.w3.org/2000/svg" xmlns:xlink="http://www.w3.org/1999/xlink" x="0px" y="0px"
	 width="100%" viewBox="0 0 1280 1024" enable-background="new 0 0 1280 1024" xml:space="preserve">
<path fill="#F8F43A" opacity="1.000000" stroke="none" 
	d="
M925.000000,1025.000000 
	C616.666687,1025.000000 308.833344,1025.000000 1.000000,1025.000000 
	C1.000000,683.666687 1.000000,342.333344 1.000000,1.000000 
	C427.666656,1.000000 854.333313,1.000000 1281.000000,1.000000 
	C1281.000000,342.333344 1281.000000,683.666687 1281.000000,1025.000000 
	C1162.500000,1025.000000 1044.000000,1025.000000 925.000000,1025.000000 
M942.924316,533.912659 
	C942.924316,533.912659 942.842285,533.903992 943.380432,533.893982 
	C943.651733,533.664734 943.923096,533.435486 944.776794,532.935730 
	C945.602600,531.698914 946.428406,530.462158 947.651306,528.761597 
	C947.773682,528.184814 947.896057,527.608032 947.996399,527.003113 
	C947.996399,527.003113 948.028687,527.016296 948.579468,526.879028 
	C948.679138,526.536926 948.778748,526.194824 948.924683,525.929016 
	C948.924683,525.929016 948.836487,525.915771 949.406555,525.777039 
	C949.729065,525.300110 950.051575,524.823181 950.711609,524.018616 
	C950.921021,523.781616 951.094421,523.520752 951.597473,522.724182 
	C951.691528,522.128174 951.785645,521.532227 951.888611,520.892700 
	C951.888611,520.892700 951.925720,520.868286 952.636414,520.821472 
	C952.936584,519.789001 953.236755,518.756592 953.554749,517.619690 
	C953.554749,517.619690 953.648987,517.571350 954.371338,517.512146 
	C954.762329,516.236938 955.153320,514.961731 955.685547,513.243713 
	C955.685547,513.243713 955.990967,512.893433 956.661865,512.846619 
	C957.192871,511.639832 957.723877,510.433075 958.745728,508.722046 
	C959.925232,504.896118 961.104736,501.070190 962.881958,496.813141 
	C963.637756,493.784790 964.696899,490.794983 965.087524,487.720245 
	C965.958252,480.866638 966.494873,473.970612 967.187317,466.451324 
	C967.172546,466.025177 967.157776,465.598999 967.495117,464.410950 
	C967.604065,443.198425 967.733093,421.985931 967.746033,400.773346 
	C967.746582,399.951324 966.632507,399.128632 965.825745,398.212250 
	C965.825745,398.212250 965.689636,398.024475 965.571289,397.525818 
	C964.438538,397.335144 963.305847,397.144470 961.215515,396.893250 
	C916.894348,396.890533 872.573242,396.881805 828.252075,396.893677 
	C823.424744,396.894989 818.597412,397.015533 813.398987,397.230560 
	C813.154602,397.388733 813.018433,397.612854 812.459412,398.103485 
	C812.251587,398.412811 812.043823,398.722168 811.226501,399.610565 
	C811.165649,421.130646 811.104858,442.650757 811.239502,464.562469 
	C811.436218,464.814606 811.694336,464.932007 812.566589,465.184052 
	C812.967896,465.266571 813.369141,465.349091 814.225708,466.049774 
	C816.168640,466.303131 818.110901,466.770782 820.054565,466.776581 
	C839.048401,466.833191 858.042480,466.789551 877.036377,466.829071 
	C882.359863,466.840118 883.080017,467.832703 881.153625,472.702087 
	C879.340637,477.284882 877.258606,481.761261 875.041809,486.079865 
	C875.041809,486.079865 875.313721,486.258514 874.632385,486.346832 
	C873.983887,486.859131 873.263306,487.302460 872.697388,487.893768 
	C859.494995,501.689178 842.425903,507.430542 824.273132,509.870361 
	C811.188721,511.629028 798.010620,512.358154 784.605103,510.469879 
	C768.657043,508.223480 753.931519,503.927460 741.127625,493.924042 
	C740.178162,493.182281 738.843567,492.933563 737.575256,492.421814 
	C737.575256,492.421814 737.540405,492.309448 737.658508,491.638062 
	C736.976257,491.268066 736.293945,490.898041 735.516846,490.489227 
	C735.516846,490.489227 735.476868,490.394806 735.562744,489.706970 
	C733.601257,487.034851 731.601196,484.389984 729.684509,481.686127 
	C717.632690,464.685394 713.321594,445.024719 712.139832,424.904877 
	C710.788513,401.898621 710.811951,378.737091 717.932739,356.337830 
	C723.275330,339.532196 732.176819,325.320801 747.579224,315.795166 
	C762.914490,306.311127 779.936340,303.131042 797.503174,303.140717 
	C809.404053,303.147278 821.343445,304.475861 833.193665,305.838745 
	C846.141663,307.327850 857.936951,312.158356 868.369446,320.101715 
	C870.526001,321.743744 872.683838,323.384003 875.116699,325.204620 
	C875.116699,325.204620 875.219238,325.517212 875.127197,326.282593 
	C879.736938,333.900116 882.902161,342.084869 883.769226,350.948914 
	C884.192932,355.281464 886.354492,355.896759 890.051208,355.879639 
	C913.697693,355.770355 937.344910,355.842102 960.991943,355.837433 
	C967.103333,355.836243 968.721497,354.260010 967.614685,348.440002 
	C965.979675,339.841980 964.430237,331.173340 961.948486,322.800323 
	C952.812866,291.979065 933.158997,269.674042 905.042053,254.717712 
	C876.108154,239.326797 844.641479,234.139755 812.363464,233.178116 
	C790.429871,232.524673 768.586731,233.592361 746.900146,237.858582 
	C728.670776,241.444717 711.189636,246.775284 695.172180,256.203705 
	C689.888916,259.313568 685.322632,263.641418 680.391357,267.453247 
	C680.391357,267.453247 680.345947,267.484589 679.807068,267.404388 
	C679.648193,267.696045 679.489258,267.987701 679.277954,268.283752 
	C679.277954,268.283752 679.269653,268.335724 678.574158,268.208496 
	C676.553345,270.259705 674.532532,272.310944 672.470642,274.492004 
	C672.470642,274.492004 672.339539,274.528961 671.640564,274.342346 
	C670.598022,275.694061 669.555542,277.045776 668.476501,278.462067 
	C668.476501,278.462067 668.413757,278.501709 667.725952,278.416595 
	C664.507568,281.962280 660.965881,285.267670 658.122986,289.092377 
	C638.835754,315.040833 631.388794,345.235718 628.442139,376.595917 
	C626.971191,392.249786 628.149719,408.148285 628.039612,423.935516 
	C627.931396,439.454559 630.553833,454.567841 633.820618,469.692841 
	C637.222656,485.444061 642.703369,500.334473 650.873718,514.087646 
	C654.852478,520.785034 660.482117,526.501648 665.010925,533.002441 
	C665.010925,533.002441 665.367798,532.663330 665.389893,533.202637 
	C665.697327,533.320557 666.004700,533.438416 666.403198,533.593262 
	C666.403198,533.593262 666.431885,533.687195 666.259705,534.372131 
	C667.322998,535.812988 668.218567,537.423035 669.475220,538.668762 
	C684.208252,553.274414 701.613281,563.611511 721.326050,569.777039 
	C729.906982,572.460876 738.928284,573.736694 747.824646,575.607666 
	C747.824646,575.607666 747.848755,575.691406 748.244324,576.392578 
	C751.596802,577.010681 754.925903,577.851807 758.306030,578.206909 
	C770.507507,579.488831 782.709290,581.290466 794.943115,581.592590 
	C806.854858,581.886719 818.800049,580.336792 830.741516,580.039185 
	C847.745667,579.615295 864.224487,576.350586 880.602173,572.064087 
	C896.784546,567.828735 911.914856,561.331482 925.407593,551.462830 
	C929.916809,548.164734 933.512817,543.617920 937.561401,539.555725 
	C937.561401,539.555725 937.647156,539.519348 938.301514,539.684509 
	C939.638733,538.219910 940.975891,536.755371 942.695312,534.887512 
	C942.761475,534.537048 942.827637,534.186523 942.924316,533.912659 
M964.186768,725.387085 
	C962.404846,725.208862 960.623779,724.886841 958.840820,724.875549 
	C945.978882,724.793945 933.116577,724.775330 920.104248,723.849915 
	C920.054260,721.038818 920.120544,718.219482 919.923584,715.418701 
	C919.697937,712.209656 920.955994,711.030457 924.218079,711.098450 
	C932.158081,711.264099 940.105103,711.189392 948.047363,711.076782 
	C949.577881,711.055115 951.099670,710.419678 952.975769,709.309875 
	C952.975769,704.086060 952.975769,698.862244 952.975769,693.339661 
	C944.582275,693.339661 936.778809,693.407410 928.976990,693.323792 
	C917.370361,693.199402 919.246460,694.882385 918.808167,683.335449 
	C918.640137,678.909363 920.110474,677.620789 924.467590,677.718933 
	C936.432007,677.988281 948.407593,677.901367 960.375000,677.714844 
	C961.912903,677.690918 964.653442,676.366272 964.747253,675.433960 
	C965.205444,670.879089 964.954712,666.252930 964.954712,661.296875 
	C942.605103,661.296875 920.877380,661.296875 898.548279,661.791870 
	C898.363098,662.752808 898.017395,663.713623 898.016113,664.674805 
	C897.984314,688.863708 897.976257,713.052734 898.021729,737.241638 
	C898.024109,738.505371 898.535645,739.768188 899.046143,741.606506 
	C899.148621,741.786621 899.251160,741.966675 899.849060,742.744019 
	C900.654236,742.885742 901.459229,743.150146 902.264587,743.151184 
	C921.807922,743.176270 941.351257,743.192871 960.894348,743.126953 
	C962.074158,743.122925 963.251587,742.421082 964.690491,741.424500 
	C964.625671,740.991516 964.560913,740.558472 964.720947,739.204834 
	C964.648926,735.399109 964.576843,731.593384 964.737122,727.235840 
	C964.686829,726.840088 964.636597,726.444336 964.186768,725.387085 
M154.273697,711.188904 
	C154.288757,706.113342 154.303802,701.037720 153.929764,695.326294 
	C152.303818,695.160400 150.678665,694.861023 149.051773,694.851196 
	C141.265686,694.804077 133.479111,694.834656 125.692719,694.839417 
	C123.463814,694.840820 121.078133,694.908752 121.190849,691.720825 
	C121.341904,687.449280 121.688004,683.184631 122.895897,678.955017 
	C135.346359,678.976746 147.796997,679.034485 160.247070,678.974365 
	C161.800659,678.966858 163.351227,678.335388 165.537659,677.606750 
	C165.893890,672.236023 166.250107,666.865295 166.606705,661.488831 
	C165.099213,661.211304 164.459915,660.991272 163.820419,660.990662 
	C143.826416,660.971436 123.832077,661.028992 103.838684,660.915894 
	C100.645073,660.897827 99.910179,662.173950 99.936203,665.078552 
	C100.046654,677.407288 99.978615,689.737610 99.978539,702.067322 
	C99.978477,714.063843 100.025963,726.060547 99.954483,738.056641 
	C99.935036,741.318665 100.423782,743.687012 104.567528,743.175415 
	C109.774223,742.532471 115.004623,742.081665 120.677292,741.759277 
	C120.828140,733.969788 121.104202,726.179810 121.076782,718.390930 
	C121.063164,714.520752 122.613945,713.021240 126.448219,713.111877 
	C133.598495,713.281067 140.756775,713.270996 147.908035,713.137634 
	C149.948288,713.099609 151.975830,712.379639 154.273697,711.188904 
M263.943298,741.295593 
	C263.813843,736.129395 263.684357,730.963257 263.852448,725.452026 
	C261.747589,725.192627 259.644348,724.725220 257.537567,724.708618 
	C246.390533,724.620850 235.237259,724.444153 224.097763,724.738342 
	C219.984589,724.846985 219.027237,723.477051 219.061432,719.639038 
	C219.218689,701.995728 219.148438,684.350037 219.066177,666.705627 
	C219.058258,665.006287 218.404205,663.309998 217.314468,661.222961 
	C212.510208,661.138306 207.689606,661.267883 202.906693,660.903198 
	C198.873703,660.595703 197.861176,662.177856 197.885452,666.019653 
	C198.036407,689.908813 197.957916,713.799500 197.989090,737.689636 
	C197.991013,739.164490 198.279037,740.638977 198.879822,742.721069 
	C199.686310,742.866150 200.492584,743.136536 201.299332,743.138000 
	C220.835571,743.172485 240.371933,743.196350 259.908051,743.146179 
	C261.124908,743.143066 262.340210,742.518982 263.943298,741.295593 
M1066.189087,740.125671 
	C1061.311523,731.509521 1056.433960,722.893433 1051.419312,714.035034 
	C1065.240479,707.140625 1067.174683,695.308594 1065.222900,682.428101 
	C1064.499390,677.653625 1061.346802,673.247192 1059.052734,668.065369 
	C1054.077637,662.958923 1047.608276,661.381897 1040.922729,661.266968 
	C1026.358032,661.016418 1011.785217,661.242493 996.578308,661.744141 
	C996.378357,662.872253 996.005127,664.000244 996.003845,665.128540 
	C995.976562,689.121460 995.979431,713.114380 996.030212,737.107239 
	C996.032898,738.377686 996.510376,739.647095 996.961243,741.489746 
	C997.047852,741.671814 997.134521,741.853821 997.350708,742.768372 
	C1002.383301,743.098206 1007.414734,743.445618 1012.448792,743.752014 
	C1016.190552,743.979736 1017.975220,742.269592 1017.874573,738.435364 
	C1017.761414,734.121216 1017.853394,729.801758 1017.855713,725.484619 
	C1017.860718,716.314636 1018.231445,715.871704 1027.365967,717.048889 
	C1029.055298,717.266541 1031.056396,718.593872 1032.045166,720.013794 
	C1034.398193,723.392456 1036.109619,727.209473 1038.307251,730.706787 
	C1040.722534,734.550415 1043.392090,738.234131 1046.434692,742.713989 
	C1052.213379,742.822876 1057.993286,743.023682 1063.769043,742.937012 
	C1064.592285,742.924683 1065.394653,741.519409 1066.189087,740.125671 
M526.797791,383.416626 
	C524.990051,383.268402 523.182373,382.991638 521.374573,382.990784 
	C477.552765,382.969940 433.730957,382.978455 389.909149,382.981720 
	C387.818451,382.981873 385.727722,382.981720 383.494324,382.981720 
	C383.494324,357.171509 383.494324,332.124207 383.494324,306.407745 
	C447.523743,306.407745 511.219604,306.407745 575.038025,306.407745 
	C575.038025,283.639252 575.038025,261.542023 575.038025,239.178238 
	C483.754883,239.178238 392.695465,239.178238 301.183105,239.178238 
	C301.183105,241.426178 301.183105,243.400925 301.183105,245.375671 
	C301.183105,289.530792 301.183929,333.685883 301.182922,377.841003 
	C301.181488,441.824249 301.163879,505.807495 301.250244,569.790588 
	C301.252747,571.654663 302.347626,573.517212 303.305298,576.025513 
	C304.246033,576.275452 305.187653,576.746826 306.127380,576.743103 
	C330.423767,576.647217 354.720276,576.393860 379.015930,576.460876 
	C383.590515,576.473450 384.050049,574.460693 384.039734,570.717102 
	C383.936646,533.400513 383.981628,496.083466 383.960999,458.766541 
	C383.957153,451.857178 383.907959,451.844818 390.663727,451.845886 
	C433.978790,451.852844 477.293823,451.872803 520.608887,451.869781 
	C528.032532,451.869263 528.040588,451.827759 528.042603,444.342133 
	C528.047485,426.183105 528.068359,408.024017 528.009033,389.865204 
	C528.002686,387.929291 527.508606,385.994934 526.797791,383.416626 
M635.850403,738.130188 
	C631.235107,730.185425 626.619812,722.240723 622.220581,714.667969 
	C625.638123,711.689819 629.360474,709.606567 631.416748,706.441101 
	C638.188232,696.016968 638.303955,684.634827 633.427917,673.550842 
	C629.074707,663.655273 619.789185,661.546509 610.078308,661.359985 
	C598.431641,661.136353 586.777710,661.296570 575.126892,661.290955 
	C572.847046,661.289856 570.567261,661.290771 567.983643,661.290771 
	C567.983643,688.459229 567.983643,715.014038 567.983643,741.691589 
	C574.428406,741.691589 580.640930,741.691589 587.200073,741.691589 
	C587.200073,735.159912 587.198425,729.019226 587.200562,722.878601 
	C587.203064,715.425842 587.229431,715.825073 594.818665,715.349426 
	C600.289795,715.006531 603.260803,716.971741 605.637146,721.765015 
	C608.650696,727.843567 612.489990,733.512817 615.986206,739.983704 
	C617.024475,740.999817 618.022217,742.841309 619.107727,742.894592 
	C625.005188,743.183899 630.924194,743.031982 637.902344,743.031982 
	C636.997742,741.115234 636.458984,739.973755 635.850403,738.130188 
M475.637299,714.416565 
	C475.423218,706.676636 474.448425,698.861694 475.202454,691.217224 
	C476.006042,683.070129 482.151947,677.943970 490.291168,676.956543 
	C493.571411,676.558655 496.945160,676.456299 500.236420,676.719299 
	C508.032074,677.342041 514.755737,679.663086 516.068237,688.635010 
	C522.560791,688.635010 528.767212,688.635010 535.285583,688.635010 
	C534.335327,677.704407 529.396606,669.830139 519.990540,665.230225 
	C507.318909,659.033264 493.893188,659.060303 480.448730,661.936401 
	C467.093964,664.793335 458.878876,673.224670 455.885162,686.537354 
	C453.665131,696.409302 453.686707,706.362000 455.765320,716.263794 
	C458.759827,730.528564 467.667267,739.021667 481.792419,741.845032 
	C493.031860,744.091492 504.358093,743.914062 515.434326,740.782898 
	C525.002808,738.077881 532.498718,732.469727 534.281860,722.216797 
	C535.542542,714.967712 535.128296,707.427307 535.471191,699.807495 
	C522.666626,699.807495 510.771149,699.807495 498.268097,699.807495 
	C498.268097,704.092407 498.397461,708.048157 498.225067,711.990662 
	C498.098938,714.876160 499.317200,715.811096 502.051575,715.727173 
	C506.294617,715.596924 510.544617,715.692749 514.893188,715.692749 
	C513.923035,722.021118 509.102448,725.596313 500.860107,726.781982 
	C488.543884,728.553650 480.451935,724.783997 475.637299,714.416565 
M715.391663,743.074524 
	C733.994995,742.331909 746.452454,734.333435 750.722229,719.860718 
	C754.235168,707.953613 754.328308,695.837463 750.891418,683.887573 
	C747.937866,673.618286 741.288635,666.464844 731.058777,663.091187 
	C719.710083,659.348450 708.113220,659.303711 696.550354,661.945129 
	C683.258423,664.981506 674.984436,673.349365 671.951294,686.608582 
	C669.502014,697.315552 669.555115,708.086670 672.512512,718.725830 
	C675.834717,730.677490 683.612793,738.380737 695.652344,741.083191 
	C701.753418,742.452698 708.156982,742.474304 715.391663,743.074524 
M835.747559,660.821228 
	C828.945374,660.909973 822.075256,660.418213 815.354919,661.205505 
	C800.330566,662.965637 789.974304,672.611938 787.042786,686.787598 
	C784.994080,696.694214 784.900208,706.651306 787.074463,716.536011 
	C789.614380,728.083130 796.054016,736.672119 807.576477,740.255798 
	C822.127319,744.781250 836.828003,744.648865 851.127319,739.070007 
	C861.522766,735.014221 867.179382,725.481323 865.990173,714.896362 
	C859.793030,714.896362 853.563232,714.896362 847.427246,714.896362 
	C844.941162,721.891235 842.346130,724.209656 835.073914,726.113586 
	C817.403503,730.739990 805.686157,722.069946 805.146912,703.941772 
	C805.082642,701.780640 805.072571,699.606018 805.231384,697.451965 
	C806.335938,682.473877 814.176636,675.634766 829.178650,676.510376 
	C830.341553,676.578247 831.503174,676.688477 832.661133,676.817017 
	C840.161438,677.649353 846.188110,680.343079 847.378723,688.668640 
	C853.903748,688.668640 860.136047,688.668640 866.379761,688.668640 
	C865.281616,672.917908 854.369751,662.870117 835.747559,660.821228 
M1119.429565,693.127197 
	C1121.737671,696.785461 1123.836182,700.598999 1126.405273,704.063782 
	C1129.839478,708.695435 1131.157715,713.632568 1130.840332,719.413818 
	C1130.433105,726.830261 1130.741577,734.285889 1130.741577,741.831665 
	C1137.527588,741.831665 1143.638062,741.831665 1150.247314,741.831665 
	C1150.247314,732.945496 1150.057861,724.301758 1150.355469,715.674805 
	C1150.453003,712.845703 1151.240967,709.712402 1152.694946,707.313049 
	C1160.367432,694.653442 1168.363525,682.190186 1176.221191,669.642517 
	C1177.767334,667.173523 1179.198730,664.632751 1181.173584,661.296387 
	C1176.124023,661.296387 1171.976562,661.656677 1167.918823,661.206909 
	C1162.608521,660.618347 1159.460449,662.444092 1156.793213,667.212097 
	C1151.890991,675.975952 1146.189575,684.292908 1140.440796,693.398804 
	C1134.143188,683.388794 1128.342163,674.093750 1122.437012,664.865479 
	C1121.591919,663.544861 1120.292969,661.617737 1119.119019,661.554626 
	C1112.939697,661.222717 1106.733032,661.399170 1099.579712,661.399170 
	C1106.531250,672.508423 1112.789673,682.509766 1119.429565,693.127197 
M313.889526,661.262329 
	C308.344757,661.262329 302.800018,661.262329 296.263519,661.262329 
	C304.931458,675.062866 312.583893,687.925171 320.950775,700.304626 
	C325.723724,707.366760 328.244751,714.502197 327.470581,723.075500 
	C326.912384,729.256775 327.361847,735.528992 327.361847,741.854492 
	C334.405487,741.854492 340.512512,741.854492 347.065948,741.854492 
	C347.065948,732.658875 346.930420,723.698975 347.157990,714.748169 
	C347.217407,712.411560 347.936157,709.815002 349.153687,707.829224 
	C357.326569,694.499146 365.720398,681.304626 374.029755,668.058105 
	C375.226593,666.150146 376.354584,664.198975 378.106110,661.282593 
	C372.245789,661.282593 367.474457,661.538757 362.745392,661.201660 
	C358.947357,660.930908 356.703949,662.190186 354.734528,665.503845 
	C349.305725,674.638184 343.483643,683.538757 337.440338,693.129822 
	C336.175690,691.364685 335.178833,690.108704 334.326355,688.761292 
	C329.256622,680.748474 324.301361,672.661194 319.100037,664.735291 
	C318.132568,663.260986 316.220581,662.406555 313.889526,661.262329 
z"/>
<path fill="#0E0CCB" opacity="1.000000" stroke="none" 
	d="
M875.219238,325.517212 
	C875.219238,325.517212 875.116699,325.204620 874.914673,324.794495 
	C868.379395,316.956482 860.322021,312.017944 851.219604,308.927948 
	C825.076721,300.053162 798.398865,298.877075 771.491516,304.597382 
	C743.839844,310.475952 725.378723,327.314270 717.242432,354.145752 
	C706.915283,388.201935 707.241699,422.746277 716.398132,457.080048 
	C719.773865,469.738007 725.636841,481.284668 735.476868,490.394806 
	C735.476868,490.394806 735.516846,490.489227 735.664673,490.765564 
	C736.388489,491.464447 736.964417,491.886932 737.540405,492.309448 
	C737.540405,492.309448 737.575256,492.421814 737.753296,492.736023 
	C738.292908,493.394043 738.638855,493.756165 739.018311,494.078949 
	C753.182129,506.127258 770.085876,510.941193 788.158997,512.429016 
	C811.528320,514.352783 834.368774,512.314026 855.822510,501.968719 
	C863.468079,498.281891 870.606323,493.712280 875.313721,486.258514 
	C875.313721,486.258514 875.041809,486.079865 875.476929,486.049072 
	C878.469788,480.411285 881.153015,474.855469 883.477234,469.153381 
	C883.932434,468.036774 882.997131,466.353424 882.396118,464.695068 
	C880.101929,464.355957 878.114868,464.166077 876.127625,464.163910 
	C856.806458,464.143005 837.484314,464.056854 818.164795,464.234741 
	C814.187378,464.271332 813.031799,463.001495 813.071106,459.084717 
	C813.249695,441.264374 813.313293,423.438721 813.042908,405.620697 
	C812.967651,400.661133 814.263489,399.041626 819.441223,399.064331 
	C864.412109,399.261353 909.384277,399.175964 954.356018,399.189362 
	C956.184021,399.189880 958.013611,399.429504 959.839722,399.398132 
	C963.909546,399.328278 965.050598,401.233368 965.008667,405.242584 
	C964.802795,424.894775 964.939026,444.550354 964.884094,464.204498 
	C964.867920,470.012634 964.622192,475.820129 964.490906,481.760773 
	C964.500122,481.893646 964.311157,482.085968 964.016846,482.327209 
	C963.196838,486.092712 962.671204,489.616974 962.127197,493.104492 
	C962.108887,493.067749 962.190979,493.064362 961.896240,493.287354 
	C961.409973,494.698120 961.218567,495.885834 961.007690,497.039124 
	C960.988342,497.004700 961.056580,496.964813 960.813477,497.225037 
	C960.465210,498.404419 960.360107,499.323608 960.221313,500.441772 
	C960.187561,500.640778 959.961548,500.975250 959.673462,501.205688 
	C959.261536,502.143250 959.137695,502.850372 958.997925,503.536255 
	C958.981934,503.514984 959.031738,503.496582 958.814575,503.786133 
	C958.482300,504.759430 958.367126,505.443146 958.250122,506.152344 
	C958.248352,506.177795 958.211609,506.213257 957.921692,506.373627 
	C957.419434,507.375000 957.207092,508.216003 956.981812,509.021729 
	C956.968811,508.986481 957.037842,508.956818 956.775635,509.178986 
	C956.359985,510.060333 956.206665,510.719543 956.019287,511.633606 
	C955.987183,512.223450 955.989075,512.558411 955.990967,512.893433 
	C955.990967,512.893433 955.685547,513.243713 955.375122,513.660400 
	C954.592712,515.241882 954.120850,516.406616 953.648987,517.571350 
	C953.648987,517.571350 953.554749,517.619690 953.298401,517.851624 
	C952.669922,519.011780 952.297852,519.940063 951.925720,520.868286 
	C951.925720,520.868286 951.888611,520.892700 951.761963,520.856018 
	C951.635254,520.819336 951.380493,520.912781 951.068237,521.060425 
	C950.488525,521.814209 950.221130,522.420288 949.947632,522.994141 
	C949.941528,522.961914 950.004089,522.942505 949.715698,523.112915 
	C949.282104,523.698914 949.136841,524.114502 948.949463,524.761719 
	C948.762512,525.291504 948.738831,525.598999 948.836487,525.915771 
	C948.836487,525.915771 948.924683,525.929016 948.645874,525.981323 
	C948.254211,526.361206 948.141418,526.688721 948.028687,527.016296 
	C948.028687,527.016296 947.996399,527.003113 947.886353,526.945679 
	C947.776367,526.888245 947.505188,526.962769 947.185669,527.090332 
	C946.560913,527.814270 946.255737,528.410583 945.950073,528.984009 
	C945.949646,528.961060 945.993652,528.948181 945.709412,529.106201 
	C945.269531,529.662109 945.113953,530.059998 944.932190,530.576294 
	C944.906067,530.694702 944.546387,530.998718 944.213074,531.126160 
	C943.535461,531.845093 943.191162,532.436584 942.815552,533.246948 
	C942.784302,533.465759 942.842285,533.903992 942.842285,533.903992 
	C942.842285,533.903992 942.924316,533.912659 942.703430,533.869751 
	C942.482544,533.826904 942.086487,533.936890 941.781433,534.069641 
	C941.179504,534.527344 940.882629,534.852234 940.597900,535.480957 
	C939.622375,537.029602 938.634766,538.274475 937.647156,539.519348 
	C937.647156,539.519348 937.561401,539.555725 937.240479,539.724854 
	C929.957825,545.222046 923.431030,551.278259 915.954590,555.744751 
	C891.195801,570.535828 863.654480,575.983032 834.840088,578.238770 
	C821.747009,578.379089 809.136292,578.740234 796.524048,578.805664 
	C787.908386,578.850403 779.290466,578.482544 770.462280,578.333740 
	C770.250977,578.368408 769.854370,578.206909 769.603882,577.912109 
	C761.027832,576.560120 752.702271,575.502869 744.006775,574.435120 
	C733.780334,571.494141 723.742310,569.058655 714.106079,565.527039 
	C695.717224,558.787537 680.059998,547.691284 666.431885,533.687195 
	C666.431885,533.687195 666.403198,533.593262 666.310913,533.332520 
	C666.025818,532.746582 665.742249,532.610413 665.367798,532.663330 
	C665.367798,532.663330 665.010925,533.002441 665.113586,532.494873 
	C650.569153,514.617004 641.425659,494.563721 635.935913,472.643555 
	C628.910583,444.592194 627.752441,416.044891 629.304321,387.415131 
	C631.477173,347.330902 640.425171,309.432495 668.413757,278.501709 
	C668.413757,278.501709 668.476501,278.462067 668.776428,278.303650 
	C670.164062,276.939850 671.251831,275.734406 672.339539,274.528961 
	C672.339539,274.528961 672.470642,274.492004 672.793457,274.314514 
	C675.167419,272.203217 677.218506,270.269470 679.269653,268.335724 
	C679.269653,268.335724 679.277954,268.283752 679.549438,268.270386 
	C680.172668,268.119873 680.347717,267.862396 680.345947,267.484589 
	C680.345947,267.484589 680.391357,267.453247 680.745850,267.350159 
	C691.006775,261.513275 700.506409,254.868546 710.900696,250.227112 
	C735.903076,239.062607 762.628784,235.643784 789.775574,234.803329 
	C821.792725,233.812088 853.391479,236.129333 883.815430,247.060806 
	C918.344055,259.467133 944.746094,280.824280 958.219849,315.994049 
	C962.824524,328.013275 965.510620,340.462585 966.114868,353.719666 
	C938.975464,353.719666 912.264282,353.719666 885.407043,353.719666 
	C884.571350,343.175537 882.714111,333.300690 875.219238,325.517212 
z"/>
<path fill="#1210C0" opacity="1.000000" stroke="none" 
	d="
M475.778320,714.789917 
	C480.451935,724.783997 488.543884,728.553650 500.860107,726.781982 
	C509.102448,725.596313 513.923035,722.021118 514.893188,715.692749 
	C510.544617,715.692749 506.294617,715.596924 502.051575,715.727173 
	C499.317200,715.811096 498.098938,714.876160 498.225067,711.990662 
	C498.397461,708.048157 498.268097,704.092407 498.268097,699.807495 
	C510.771149,699.807495 522.666626,699.807495 535.471191,699.807495 
	C535.128296,707.427307 535.542542,714.967712 534.281860,722.216797 
	C532.498718,732.469727 525.002808,738.077881 515.434326,740.782898 
	C504.358093,743.914062 493.031860,744.091492 481.792419,741.845032 
	C467.667267,739.021667 458.759827,730.528564 455.765320,716.263794 
	C453.686707,706.362000 453.665131,696.409302 455.885162,686.537354 
	C458.878876,673.224670 467.093964,664.793335 480.448730,661.936401 
	C493.893188,659.060303 507.318909,659.033264 519.990540,665.230225 
	C529.396606,669.830139 534.335327,677.704407 535.285583,688.635010 
	C528.767212,688.635010 522.560791,688.635010 516.068237,688.635010 
	C514.755737,679.663086 508.032074,677.342041 500.236420,676.719299 
	C496.945160,676.456299 493.571411,676.558655 490.291168,676.956543 
	C482.151947,677.943970 476.006042,683.070129 475.202454,691.217224 
	C474.448425,698.861694 475.423218,706.676636 475.778320,714.789917 
z"/>
<path fill="#110FC2" opacity="1.000000" stroke="none" 
	d="
M615.973145,739.358582 
	C612.489990,733.512817 608.650696,727.843567 605.637146,721.765015 
	C603.260803,716.971741 600.289795,715.006531 594.818665,715.349426 
	C587.229431,715.825073 587.203064,715.425842 587.200562,722.878601 
	C587.198425,729.019226 587.200073,735.159912 587.200073,741.691589 
	C580.640930,741.691589 574.428406,741.691589 567.983643,741.691589 
	C567.983643,715.014038 567.983643,688.459229 567.983643,661.290771 
	C570.567261,661.290771 572.847046,661.289856 575.126892,661.290955 
	C586.777710,661.296570 598.431641,661.136353 610.078308,661.359985 
	C619.789185,661.546509 629.074707,663.655273 633.427917,673.550842 
	C638.303955,684.634827 638.188232,696.016968 631.416748,706.441101 
	C629.360474,709.606567 625.638123,711.689819 622.220581,714.667969 
	C626.619812,722.240723 631.235107,730.185425 635.769409,738.868469 
	C629.116638,739.523987 622.544861,739.441284 615.973145,739.358582 
M601.415161,699.358826 
	C603.573181,699.356140 605.732056,699.392761 607.888977,699.343140 
	C613.649902,699.210693 616.203125,697.184021 616.701233,691.489075 
	C616.968750,688.430237 616.815552,685.050659 615.725952,682.254761 
	C614.972351,680.321106 612.372620,677.956177 610.460449,677.827576 
	C602.910583,677.320007 595.306458,677.619324 587.442383,677.619324 
	C587.442383,684.980591 587.442383,691.866638 587.442383,699.358765 
	C591.899048,699.358765 596.174133,699.358765 601.415161,699.358826 
z"/>
<path fill="#1210C2" opacity="1.000000" stroke="none" 
	d="
M714.907715,743.089966 
	C708.156982,742.474304 701.753418,742.452698 695.652344,741.083191 
	C683.612793,738.380737 675.834717,730.677490 672.512512,718.725830 
	C669.555115,708.086670 669.502014,697.315552 671.951294,686.608582 
	C674.984436,673.349365 683.258423,664.981506 696.550354,661.945129 
	C708.113220,659.303711 719.710083,659.348450 731.058777,663.091187 
	C741.288635,666.464844 747.937866,673.618286 750.891418,683.887573 
	C754.328308,695.837463 754.235168,707.953613 750.722229,719.860718 
	C746.452454,734.333435 733.994995,742.331909 714.907715,743.089966 
M732.278564,690.489685 
	C728.328796,679.544922 720.878967,675.206177 708.451721,676.612976 
	C698.958801,677.687622 692.574341,682.159363 691.358459,690.618591 
	C690.314209,697.883850 690.258301,705.561768 691.395386,712.801147 
	C692.802490,721.759521 700.156128,726.635559 709.971924,726.998291 
	C721.836243,727.436768 729.432373,723.789978 731.551941,714.369690 
	C733.217590,706.966431 732.312012,698.984558 732.278564,690.489685 
z"/>
<path fill="#1210C0" opacity="1.000000" stroke="none" 
	d="
M836.187439,660.865662 
	C854.369751,662.870117 865.281616,672.917908 866.379761,688.668640 
	C860.136047,688.668640 853.903748,688.668640 847.378723,688.668640 
	C846.188110,680.343079 840.161438,677.649353 832.661133,676.817017 
	C831.503174,676.688477 830.341553,676.578247 829.178650,676.510376 
	C814.176636,675.634766 806.335938,682.473877 805.231384,697.451965 
	C805.072571,699.606018 805.082642,701.780640 805.146912,703.941772 
	C805.686157,722.069946 817.403503,730.739990 835.073914,726.113586 
	C842.346130,724.209656 844.941162,721.891235 847.427246,714.896362 
	C853.563232,714.896362 859.793030,714.896362 865.990173,714.896362 
	C867.179382,725.481323 861.522766,735.014221 851.127319,739.070007 
	C836.828003,744.648865 822.127319,744.781250 807.576477,740.255798 
	C796.054016,736.672119 789.614380,728.083130 787.074463,716.536011 
	C784.900208,706.651306 784.994080,696.694214 787.042786,686.787598 
	C789.974304,672.611938 800.330566,662.965637 815.354919,661.205505 
	C822.075256,660.418213 828.945374,660.909973 836.187439,660.865662 
z"/>
<path fill="#0F0DC8" opacity="1.000000" stroke="none" 
	d="
M964.504822,727.787659 
	C964.576843,731.593384 964.648926,735.399109 964.225830,739.670410 
	C962.269104,740.378845 960.808105,740.828430 959.345703,740.833130 
	C940.892395,740.892944 922.438843,740.911865 903.985535,740.853516 
	C902.596741,740.849182 901.210083,740.177063 899.853149,739.359497 
	C899.894836,737.571655 899.915466,736.239685 899.915283,734.907715 
	C899.912598,712.593689 899.901184,690.279663 899.910950,667.965637 
	C899.912048,665.502563 899.419617,662.836609 903.428040,662.854553 
	C922.244568,662.938782 941.061584,662.887939 959.878479,662.893860 
	C962.585632,662.894714 963.864319,664.197571 963.542786,666.970642 
	C963.370850,668.453491 963.082092,669.968445 963.222168,671.432922 
	C963.591125,675.289185 961.747314,676.260437 958.203064,676.197083 
	C948.714355,676.027466 939.220520,676.148193 929.728760,676.138245 
	C916.113098,676.123901 917.193420,674.939819 917.068359,688.827881 
	C917.027466,693.373047 918.866394,695.115784 923.318726,695.028076 
	C931.475037,694.867432 939.638916,695.090393 947.795532,694.936096 
	C951.050171,694.874573 952.420410,696.065308 952.124634,699.299255 
	C952.003845,700.620483 951.984375,701.974243 952.123413,703.291565 
	C952.504089,706.897949 951.155762,708.363525 947.352112,708.245544 
	C939.699402,708.008362 932.031738,708.065613 924.376160,708.248840 
	C922.582520,708.291687 920.812500,709.320618 919.009705,709.968628 
	C918.987793,710.041443 918.835999,710.033936 918.476807,710.145386 
	C916.941040,715.575195 915.439209,720.912598 919.020996,725.972839 
	C919.002441,725.995483 919.048279,725.959473 919.098083,726.159302 
	C919.291565,726.603516 919.496948,726.773193 920.242554,726.943176 
	C924.212341,727.048096 927.704163,727.047302 931.194702,727.113708 
	C942.298340,727.324951 953.401489,727.561096 964.504822,727.787659 
z"/>
<path fill="#1210C0" opacity="1.000000" stroke="none" 
	d="
M1119.238770,692.819214 
	C1112.789673,682.509766 1106.531250,672.508423 1099.579712,661.399170 
	C1106.733032,661.399170 1112.939697,661.222717 1119.119019,661.554626 
	C1120.292969,661.617737 1121.591919,663.544861 1122.437012,664.865479 
	C1128.342163,674.093750 1134.143188,683.388794 1140.440796,693.398804 
	C1146.189575,684.292908 1151.890991,675.975952 1156.793213,667.212097 
	C1159.460449,662.444092 1162.608521,660.618347 1167.918823,661.206909 
	C1171.976562,661.656677 1176.124023,661.296387 1181.173584,661.296387 
	C1179.198730,664.632751 1177.767334,667.173523 1176.221191,669.642517 
	C1168.363525,682.190186 1160.367432,694.653442 1152.694946,707.313049 
	C1151.240967,709.712402 1150.453003,712.845703 1150.355469,715.674805 
	C1150.057861,724.301758 1150.247314,732.945496 1150.247314,741.831665 
	C1143.638062,741.831665 1137.527588,741.831665 1130.741577,741.831665 
	C1130.741577,734.285889 1130.433105,726.830261 1130.840332,719.413818 
	C1131.157715,713.632568 1129.839478,708.695435 1126.405273,704.063782 
	C1123.836182,700.598999 1121.737671,696.785461 1119.238770,692.819214 
z"/>
<path fill="#1412BF" opacity="1.000000" stroke="none" 
	d="
M314.317017,661.264221 
	C316.220581,662.406555 318.132568,663.260986 319.100037,664.735291 
	C324.301361,672.661194 329.256622,680.748474 334.326355,688.761292 
	C335.178833,690.108704 336.175690,691.364685 337.440338,693.129822 
	C343.483643,683.538757 349.305725,674.638184 354.734528,665.503845 
	C356.703949,662.190186 358.947357,660.930908 362.745392,661.201660 
	C367.474457,661.538757 372.245789,661.282593 378.106110,661.282593 
	C376.354584,664.198975 375.226593,666.150146 374.029755,668.058105 
	C365.720398,681.304626 357.326569,694.499146 349.153687,707.829224 
	C347.936157,709.815002 347.217407,712.411560 347.157990,714.748169 
	C346.930420,723.698975 347.065948,732.658875 347.065948,741.854492 
	C340.512512,741.854492 334.405487,741.854492 327.361847,741.854492 
	C327.361847,735.528992 326.912384,729.256775 327.470581,723.075500 
	C328.244751,714.502197 325.723724,707.366760 320.950775,700.304626 
	C312.583893,687.925171 304.931458,675.062866 296.263519,661.262329 
	C302.800018,661.262329 308.344757,661.262329 314.317017,661.264221 
z"/>
<path fill="#303089" opacity="1.000000" stroke="none" 
	d="
M302.933167,575.380493 
	C302.347626,573.517212 301.252747,571.654663 301.250244,569.790588 
	C301.163879,505.807495 301.181488,441.824249 301.182922,377.841003 
	C301.183929,333.685883 301.183105,289.530792 301.183105,245.375671 
	C301.183105,243.400925 301.183105,241.426178 301.183105,239.178238 
	C392.695465,239.178238 483.754883,239.178238 575.038025,239.178238 
	C575.038025,261.542023 575.038025,283.639252 575.038025,306.407745 
	C511.219604,306.407745 447.523743,306.407745 383.494324,306.407745 
	C383.494324,332.124207 383.494324,357.171509 383.494324,382.981720 
	C385.727722,382.981720 387.818451,382.981873 389.909149,382.981720 
	C433.730957,382.978455 477.552765,382.969940 521.374573,382.990784 
	C523.182373,382.991638 524.990051,383.268402 526.948608,384.195007 
	C527.099426,406.562775 527.099426,428.152130 527.099426,450.188782 
	C478.782684,450.188782 431.057068,450.188782 383.553711,449.864014 
	C385.570465,449.354034 387.364563,449.013184 389.159637,449.007996 
	C404.138702,448.964935 419.117950,448.983429 434.097137,448.983734 
	C462.890411,448.984283 491.683716,448.986877 520.476990,448.983093 
	C523.298584,448.982727 526.150757,449.508484 526.112915,444.938080 
	C525.955627,425.965759 526.000732,406.991180 526.090881,388.017975 
	C526.105713,384.886047 524.804443,384.021667 521.893250,384.075562 
	C514.757751,384.207642 507.618073,384.109833 500.480103,384.109589 
	C463.198578,384.108398 425.916901,384.147003 388.635895,384.008362 
	C386.520386,384.000519 384.410248,382.544006 382.457550,381.416046 
	C382.677185,358.081818 382.741089,335.093292 382.774261,312.104706 
	C382.775177,311.469025 382.446564,310.832855 382.217773,309.781433 
	C381.745605,304.181152 385.492004,304.961884 388.578156,304.961304 
	C448.229736,304.949738 507.881317,304.960541 567.532898,304.961578 
	C574.034241,304.961700 574.042297,304.946930 574.044006,298.354492 
	C574.048523,280.858917 573.914612,263.361694 574.135681,245.868912 
	C574.192017,241.406174 573.078064,239.896759 568.328918,239.904617 
	C482.017944,240.046951 395.706635,240.043655 309.395630,239.906464 
	C304.520386,239.898727 302.831635,240.947495 302.839142,246.203949 
	C302.992737,353.509918 302.983795,460.816193 302.841614,568.122253 
	C302.834961,573.154602 304.571045,574.181152 309.181091,574.138794 
	C331.340240,573.934937 353.503876,573.912598 375.662109,574.163879 
	C380.615234,574.220093 382.197357,572.970337 382.164581,567.801270 
	C381.933350,531.311951 382.012299,494.820557 382.060638,458.329956 
	C382.063843,455.905670 382.629028,453.482147 382.972351,451.521790 
	C383.011871,492.964172 383.011871,533.943054 383.011871,575.136353 
	C378.385681,575.136353 374.567108,575.125061 370.748596,575.138184 
	C348.143463,575.215881 325.538300,575.299133 302.933167,575.380493 
z"/>
<path fill="#CCC88A" opacity="1.000000" stroke="none" 
	d="
M875.173218,325.899902 
	C882.714111,333.300690 884.571350,343.175537 885.407043,353.719666 
	C912.264282,353.719666 938.975464,353.719666 966.114868,353.719666 
	C965.510620,340.462585 962.824524,328.013275 958.219849,315.994049 
	C944.746094,280.824280 918.344055,259.467133 883.815430,247.060806 
	C853.391479,236.129333 821.792725,233.812088 789.775574,234.803329 
	C762.628784,235.643784 735.903076,239.062607 710.900696,250.227112 
	C700.506409,254.868546 691.006775,261.513275 680.764404,267.329712 
	C685.322632,263.641418 689.888916,259.313568 695.172180,256.203705 
	C711.189636,246.775284 728.670776,241.444717 746.900146,237.858582 
	C768.586731,233.592361 790.429871,232.524673 812.363464,233.178116 
	C844.641479,234.139755 876.108154,239.326797 905.042053,254.717712 
	C933.158997,269.674042 952.812866,291.979065 961.948486,322.800323 
	C964.430237,331.173340 965.979675,339.841980 967.614685,348.440002 
	C968.721497,354.260010 967.103333,355.836243 960.991943,355.837433 
	C937.344910,355.842102 913.697693,355.770355 890.051208,355.879639 
	C886.354492,355.896759 884.192932,355.281464 883.769226,350.948914 
	C882.902161,342.084869 879.736938,333.900116 875.173218,325.899902 
z"/>
<path fill="#CCC88A" opacity="1.000000" stroke="none" 
	d="
M735.519775,490.050903 
	C725.636841,481.284668 719.773865,469.738007 716.398132,457.080048 
	C707.241699,422.746277 706.915283,388.201935 717.242432,354.145752 
	C725.378723,327.314270 743.839844,310.475952 771.491516,304.597382 
	C798.398865,298.877075 825.076721,300.053162 851.219604,308.927948 
	C860.322021,312.017944 868.379395,316.956482 874.776855,324.704712 
	C872.683838,323.384003 870.526001,321.743744 868.369446,320.101715 
	C857.936951,312.158356 846.141663,307.327850 833.193665,305.838745 
	C821.343445,304.475861 809.404053,303.147278 797.503174,303.140717 
	C779.936340,303.131042 762.914490,306.311127 747.579224,315.795166 
	C732.176819,325.320801 723.275330,339.532196 717.932739,356.337830 
	C710.811951,378.737091 710.788513,401.898621 712.139832,424.904877 
	C713.321594,445.024719 717.632690,464.685394 729.684509,481.686127 
	C731.601196,484.389984 733.601257,487.034851 735.519775,490.050903 
z"/>
<path fill="#3C3B8A" opacity="1.000000" stroke="none" 
	d="
M919.031616,709.895874 
	C920.812500,709.320618 922.582520,708.291687 924.376160,708.248840 
	C932.031738,708.065613 939.699402,708.008362 947.352112,708.245544 
	C951.155762,708.363525 952.504089,706.897949 952.123413,703.291565 
	C951.984375,701.974243 952.003845,700.620483 952.124634,699.299255 
	C952.420410,696.065308 951.050171,694.874573 947.795532,694.936096 
	C939.638916,695.090393 931.475037,694.867432 923.318726,695.028076 
	C918.866394,695.115784 917.027466,693.373047 917.068359,688.827881 
	C917.193420,674.939819 916.113098,676.123901 929.728760,676.138245 
	C939.220520,676.148193 948.714355,676.027466 958.203064,676.197083 
	C961.747314,676.260437 963.591125,675.289185 963.222168,671.432922 
	C963.082092,669.968445 963.370850,668.453491 963.542786,666.970642 
	C963.864319,664.197571 962.585632,662.894714 959.878479,662.893860 
	C941.061584,662.887939 922.244568,662.938782 903.428040,662.854553 
	C899.419617,662.836609 899.912048,665.502563 899.910950,667.965637 
	C899.901184,690.279663 899.912598,712.593689 899.915283,734.907715 
	C899.915466,736.239685 899.894836,737.571655 899.671753,739.398193 
	C899.459595,739.892700 899.092224,739.953186 899.014160,739.493164 
	C899.007263,713.121094 899.078491,687.208984 899.149658,661.296875 
	C920.877380,661.296875 942.605103,661.296875 964.954712,661.296875 
	C964.954712,666.252930 965.205444,670.879089 964.747253,675.433960 
	C964.653442,676.366272 961.912903,677.690918 960.375000,677.714844 
	C948.407593,677.901367 936.432007,677.988281 924.467590,677.718933 
	C920.110474,677.620789 918.640137,678.909363 918.808167,683.335449 
	C919.246460,694.882385 917.370361,693.199402 928.976990,693.323792 
	C936.778809,693.407410 944.582275,693.339661 952.975769,693.339661 
	C952.975769,698.862244 952.975769,704.086060 952.372925,709.635376 
	C940.857300,709.939270 929.944458,709.917603 919.031616,709.895874 
z"/>
<path fill="#CCC88A" opacity="1.000000" stroke="none" 
	d="
M303.119232,575.703003 
	C325.538300,575.299133 348.143463,575.215881 370.748596,575.138184 
	C374.567108,575.125061 378.385681,575.136353 383.011871,575.136353 
	C383.011871,533.943054 383.011871,492.964172 383.093445,451.313904 
	C383.175018,450.642517 383.331482,450.188782 383.331482,450.188782 
	C431.057068,450.188782 478.782684,450.188782 527.099426,450.188782 
	C527.099426,428.152130 527.099426,406.562775 527.170166,384.516663 
	C527.508606,385.994934 528.002686,387.929291 528.009033,389.865204 
	C528.068359,408.024017 528.047485,426.183105 528.042603,444.342133 
	C528.040588,451.827759 528.032532,451.869263 520.608887,451.869781 
	C477.293823,451.872803 433.978790,451.852844 390.663727,451.845886 
	C383.907959,451.844818 383.957153,451.857178 383.960999,458.766541 
	C383.981628,496.083466 383.936646,533.400513 384.039734,570.717102 
	C384.050049,574.460693 383.590515,576.473450 379.015930,576.460876 
	C354.720276,576.393860 330.423767,576.647217 306.127380,576.743103 
	C305.187653,576.746826 304.246033,576.275452 303.119232,575.703003 
z"/>
<path fill="#535072" opacity="1.000000" stroke="none" 
	d="
M120.224800,741.547974 
	C115.004623,742.081665 109.774223,742.532471 104.567528,743.175415 
	C100.423782,743.687012 99.935036,741.318665 99.954483,738.056641 
	C100.025963,726.060547 99.978477,714.063843 99.978539,702.067322 
	C99.978615,689.737610 100.046654,677.407288 99.936203,665.078552 
	C99.910179,662.173950 100.645073,660.897827 103.838684,660.915894 
	C123.832077,661.028992 143.826416,660.971436 163.820419,660.990662 
	C164.459915,660.991272 165.099213,661.211304 166.606705,661.488831 
	C166.250107,666.865295 165.893890,672.236023 164.769287,677.710938 
	C149.969223,677.874390 135.937546,677.933777 121.594078,677.903809 
	C120.640167,677.731812 119.998032,677.649170 119.576202,677.338440 
	C121.930573,676.859680 124.063293,676.406433 126.198952,676.392090 
	C137.529694,676.316101 148.862854,676.239197 160.191437,676.409912 
	C163.881058,676.465515 165.481918,675.210571 165.080429,671.505066 
	C164.955429,670.351440 164.951797,669.165466 165.058014,668.009521 
	C165.404755,664.236450 163.947372,662.604797 159.955276,662.597046 
	C142.467041,662.563293 124.976013,662.449768 107.493393,662.045410 
	C102.755646,661.935852 101.521439,663.645813 101.558136,668.124878 
	C101.731499,689.286072 101.605721,710.449585 101.630440,731.612244 
	C101.643318,742.644165 100.893936,740.902039 110.912498,741.024536 
	C118.998741,741.123413 118.882919,741.062439 119.034126,732.812256 
	C119.154900,726.222595 119.604378,719.638916 119.989403,713.511780 
	C120.122169,723.163269 120.173485,732.355652 120.224800,741.547974 
z"/>
<path fill="#CCC88A" opacity="1.000000" stroke="none" 
	d="
M668.069824,278.459167 
	C640.425171,309.432495 631.477173,347.330902 629.304321,387.415131 
	C627.752441,416.044891 628.910583,444.592194 635.935913,472.643555 
	C641.425659,494.563721 650.569153,514.617004 665.290405,532.324768 
	C660.482117,526.501648 654.852478,520.785034 650.873718,514.087646 
	C642.703369,500.334473 637.222656,485.444061 633.820618,469.692841 
	C630.553833,454.567841 627.931396,439.454559 628.039612,423.935516 
	C628.149719,408.148285 626.971191,392.249786 628.442139,376.595917 
	C631.388794,345.235718 638.835754,315.040833 658.122986,289.092377 
	C660.965881,285.267670 664.507568,281.962280 668.069824,278.459167 
z"/>
<path fill="#24225E" opacity="1.000000" stroke="none" 
	d="
M964.481689,481.627899 
	C964.622192,475.820129 964.867920,470.012634 964.884094,464.204498 
	C964.939026,444.550354 964.802795,424.894775 965.008667,405.242584 
	C965.050598,401.233368 963.909546,399.328278 959.839722,399.398132 
	C958.013611,399.429504 956.184021,399.189880 954.356018,399.189362 
	C909.384277,399.175964 864.412109,399.261353 819.441223,399.064331 
	C814.263489,399.041626 812.967651,400.661133 813.042908,405.620697 
	C813.313293,423.438721 813.249695,441.264374 813.071106,459.084717 
	C813.031799,463.001495 814.187378,464.271332 818.164795,464.234741 
	C837.484314,464.056854 856.806458,464.143005 876.127625,464.163910 
	C878.114868,464.166077 880.101929,464.355957 881.964539,464.779358 
	C877.863586,465.112335 873.887024,465.117920 869.910645,465.138214 
	C851.197266,465.233795 832.483826,465.333466 813.770447,465.431641 
	C813.369141,465.349091 812.967896,465.266571 812.291504,464.797546 
	C811.967529,464.249908 811.918640,464.088837 811.920166,463.466064 
	C811.925659,441.680115 811.880859,420.355804 811.836060,399.031525 
	C812.043823,398.722168 812.251587,398.412811 813.002075,398.074768 
	C813.729431,397.998138 813.914062,397.950287 814.558716,397.953033 
	C863.996216,397.971375 912.973633,397.939117 962.323730,397.987091 
	C963.694153,398.053009 964.691895,398.038727 965.689636,398.024475 
	C965.689636,398.024475 965.825745,398.212250 965.908203,398.547119 
	C966.067444,399.264160 966.144165,399.646332 966.167725,400.494324 
	C966.124207,423.005829 966.134033,445.051453 966.055908,467.516815 
	C965.472595,472.500305 964.977112,477.064117 964.481689,481.627899 
z"/>
<path fill="#CCC88A" opacity="1.000000" stroke="none" 
	d="
M835.321777,578.333557 
	C863.654480,575.983032 891.195801,570.535828 915.954590,555.744751 
	C923.431030,551.278259 929.957825,545.222046 937.222900,539.767944 
	C933.512817,543.617920 929.916809,548.164734 925.407593,551.462830 
	C911.914856,561.331482 896.784546,567.828735 880.602173,572.064087 
	C864.224487,576.350586 847.745667,579.615295 830.741516,580.039185 
	C818.800049,580.336792 806.854858,581.886719 794.943115,581.592590 
	C782.709290,581.290466 770.507507,579.488831 758.306030,578.206909 
	C754.925903,577.851807 751.596802,577.010681 748.501953,576.035645 
	C755.791138,576.521484 762.822754,577.364197 769.854370,578.206909 
	C769.854370,578.206909 770.250977,578.368408 770.847900,578.506104 
	C775.404114,578.929932 779.368103,579.512634 783.322021,579.450928 
	C800.656860,579.180298 817.988770,578.723145 835.321777,578.333557 
z"/>
<path fill="#CCC88A" opacity="1.000000" stroke="none" 
	d="
M874.973022,486.302673 
	C870.606323,493.712280 863.468079,498.281891 855.822510,501.968719 
	C834.368774,512.314026 811.528320,514.352783 788.158997,512.429016 
	C770.085876,510.941193 753.182129,506.127258 739.018311,494.078949 
	C738.638855,493.756165 738.292908,493.394043 737.809692,492.752930 
	C738.843567,492.933563 740.178162,493.182281 741.127625,493.924042 
	C753.931519,503.927460 768.657043,508.223480 784.605103,510.469879 
	C798.010620,512.358154 811.188721,511.629028 824.273132,509.870361 
	C842.425903,507.430542 859.494995,501.689178 872.697388,487.893768 
	C873.263306,487.302460 873.983887,486.859131 874.973022,486.302673 
z"/>
<path fill="#303089" opacity="1.000000" stroke="none" 
	d="
M997.215759,661.273804 
	C1011.785217,661.242493 1026.358032,661.016418 1040.922729,661.266968 
	C1047.608276,661.381897 1054.077637,662.958923 1059.046875,668.504883 
	C1059.040894,668.944397 1058.778320,669.214722 1058.510010,669.006226 
	C1052.686890,664.190613 1046.146240,662.870850 1039.134521,662.910034 
	C1027.477417,662.975098 1015.814819,663.125427 1004.164612,662.835510 
	C999.525269,662.720154 997.793823,663.867004 997.852234,668.858215 
	C998.105591,690.504822 997.951294,712.156189 997.950867,733.805786 
	C997.950745,740.282227 997.959167,740.282227 1004.383606,740.191467 
	C1015.061890,740.040710 1014.947876,740.038818 1015.117554,729.302917 
	C1015.186401,724.945740 1015.872437,720.598328 1016.357178,716.693970 
	C1016.436584,725.225464 1016.436584,733.309387 1016.436584,742.035889 
	C1009.719666,742.035889 1003.470398,742.035889 997.221130,742.035889 
	C997.134521,741.853821 997.047852,741.671814 996.935913,740.747070 
	C996.915283,731.697449 996.893433,723.390320 996.930115,715.083435 
	C997.009338,697.146851 997.118713,679.210388 997.215759,661.273804 
z"/>
<path fill="#535072" opacity="1.000000" stroke="none" 
	d="
M198.433975,742.113647 
	C198.279037,740.638977 197.991013,739.164490 197.989090,737.689636 
	C197.957916,713.799500 198.036407,689.908813 197.885452,666.019653 
	C197.861176,662.177856 198.873703,660.595703 202.906693,660.903198 
	C207.689606,661.267883 212.510208,661.138306 217.708252,661.822998 
	C218.036835,683.291443 217.971634,704.159851 217.640350,724.705200 
	C217.244537,722.569580 217.006256,720.757202 217.002197,718.944275 
	C216.968597,703.967957 216.985535,688.991577 216.972778,674.015198 
	C216.962646,662.126526 216.948380,662.343018 205.153000,662.056763 
	C200.480682,661.943359 199.095688,663.494141 199.128220,668.016113 
	C199.293396,690.978760 199.205566,713.943115 199.237885,736.906921 
	C199.239731,738.215698 199.520813,739.524109 199.718567,741.126038 
	C199.847244,741.599548 199.929276,741.779724 199.755432,742.041199 
	C199.144348,742.119507 198.789154,742.116577 198.433975,742.113647 
z"/>
<path fill="#CCC88A" opacity="1.000000" stroke="none" 
	d="
M666.345825,534.029663 
	C680.059998,547.691284 695.717224,558.787537 714.106079,565.527039 
	C723.742310,569.058655 733.780334,571.494141 744.323486,574.611694 
	C745.923218,575.083130 746.836365,575.367554 747.749573,575.651917 
	C738.928284,573.736694 729.906982,572.460876 721.326050,569.777039 
	C701.613281,563.611511 684.208252,553.274414 669.475220,538.668762 
	C668.218567,537.423035 667.322998,535.812988 666.345825,534.029663 
z"/>
<path fill="#CCC88A" opacity="1.000000" stroke="none" 
	d="
M997.285889,742.402100 
	C1003.470398,742.035889 1009.719666,742.035889 1016.436584,742.035889 
	C1016.436584,733.309387 1016.436584,725.225464 1016.686951,716.454956 
	C1019.869995,715.589355 1022.818481,715.543640 1025.731445,715.198547 
	C1029.621094,714.737671 1032.027100,716.042236 1033.945190,719.698853 
	C1037.682617,726.823669 1042.018677,733.634460 1046.098755,740.931885 
	C1046.044189,741.521423 1045.997559,741.754456 1045.950928,741.987549 
	C1043.392090,738.234131 1040.722534,734.550415 1038.307251,730.706787 
	C1036.109619,727.209473 1034.398193,723.392456 1032.045166,720.013794 
	C1031.056396,718.593872 1029.055298,717.266541 1027.365967,717.048889 
	C1018.231445,715.871704 1017.860718,716.314636 1017.855713,725.484619 
	C1017.853394,729.801758 1017.761414,734.121216 1017.874573,738.435364 
	C1017.975220,742.269592 1016.190552,743.979736 1012.448792,743.752014 
	C1007.414734,743.445618 1002.383301,743.098206 997.285889,742.402100 
z"/>
<path fill="#CCC88A" opacity="1.000000" stroke="none" 
	d="
M813.998047,465.740723 
	C832.483826,465.333466 851.197266,465.233795 869.910645,465.138214 
	C873.887024,465.117920 877.863586,465.112335 882.271606,465.015717 
	C882.997131,466.353424 883.932434,468.036774 883.477234,469.153381 
	C881.153015,474.855469 878.469788,480.411285 875.603516,486.151367 
	C877.258606,481.761261 879.340637,477.284882 881.153625,472.702087 
	C883.080017,467.832703 882.359863,466.840118 877.036377,466.829071 
	C858.042480,466.789551 839.048401,466.833191 820.054565,466.776581 
	C818.110901,466.770782 816.168640,466.303131 813.998047,465.740723 
z"/>
<path fill="#303089" opacity="1.000000" stroke="none" 
	d="
M1059.171509,668.808594 
	C1061.346802,673.247192 1064.499390,677.653625 1065.222900,682.428101 
	C1067.174683,695.308594 1065.240479,707.140625 1051.419312,714.035034 
	C1056.433960,722.893433 1061.311523,731.509521 1066.025635,740.345093 
	C1065.220581,740.633362 1064.578979,740.702209 1063.954224,740.416016 
	C1060.125977,732.939819 1056.500366,725.687134 1052.349487,718.748779 
	C1050.018066,714.851746 1050.435547,712.452942 1054.447876,710.394897 
	C1059.917114,707.589478 1062.949341,702.601685 1063.659668,696.897522 
	C1064.853638,687.309326 1065.157471,677.594604 1058.778320,669.214722 
	C1058.778320,669.214722 1059.040894,668.944397 1059.171509,668.808594 
z"/>
<path fill="#E2DFB4" opacity="1.000000" stroke="none" 
	d="
M961.951111,397.906860 
	C912.973633,397.939117 863.996216,397.971375 814.475098,397.748016 
	C813.931519,397.492401 813.770081,397.080780 813.770081,397.080780 
	C818.597412,397.015533 823.424744,396.894989 828.252075,396.893677 
	C872.573242,396.881805 916.894348,396.890533 961.643066,397.163147 
	C962.070679,397.433014 961.951111,397.906860 961.951111,397.906860 
z"/>
<path fill="#24225E" opacity="1.000000" stroke="none" 
	d="
M200.011322,741.959961 
	C199.929276,741.779724 199.847244,741.599548 200.220184,741.148682 
	C219.623184,740.870056 238.574158,740.675476 257.517365,740.973572 
	C262.855438,741.057495 263.069733,738.388611 262.904877,734.498718 
	C262.745850,730.746155 263.895081,726.770325 257.491058,727.008545 
	C246.204239,727.428406 234.890274,727.170898 223.588562,727.083191 
	C221.877838,727.069824 220.171860,726.443726 218.900223,726.046387 
	C234.076141,725.926819 248.815521,725.861938 263.554901,725.797058 
	C263.684357,730.963257 263.813843,736.129395 263.330902,741.674622 
	C241.816116,742.022400 220.913712,741.991211 200.011322,741.959961 
z"/>
<path fill="#E2DFB4" opacity="1.000000" stroke="none" 
	d="
M263.703674,725.624512 
	C248.815521,725.861938 234.076141,725.926819 218.721741,725.796448 
	C218.039978,725.410156 217.973206,725.219238 217.906433,725.028259 
	C217.971634,704.159851 218.036835,683.291443 218.076050,662.017700 
	C218.404205,663.309998 219.058258,665.006287 219.066177,666.705627 
	C219.148438,684.350037 219.218689,701.995728 219.061432,719.639038 
	C219.027237,723.477051 219.984589,724.846985 224.097763,724.738342 
	C235.237259,724.444153 246.390533,724.620850 257.537567,724.708618 
	C259.644348,724.725220 261.747589,725.192627 263.703674,725.624512 
z"/>
<path fill="#E7E68B" opacity="1.000000" stroke="none" 
	d="
M996.897034,661.509033 
	C997.118713,679.210388 997.009338,697.146851 996.930115,715.083435 
	C996.893433,723.390320 996.915283,731.697449 996.838684,740.460693 
	C996.510376,739.647095 996.032898,738.377686 996.030212,737.107239 
	C995.979431,713.114380 995.976562,689.121460 996.003845,665.128540 
	C996.005127,664.000244 996.378357,662.872253 996.897034,661.509033 
z"/>
<path fill="#E7E68B" opacity="1.000000" stroke="none" 
	d="
M898.848999,661.544373 
	C899.078491,687.208984 899.007263,713.121094 898.955811,739.766357 
	C898.920471,740.676758 898.865295,740.854126 898.810181,741.031433 
	C898.535645,739.768188 898.024109,738.505371 898.021729,737.241638 
	C897.976257,713.052734 897.984314,688.863708 898.016113,664.674805 
	C898.017395,663.713623 898.363098,662.752808 898.848999,661.544373 
z"/>
<path fill="#E2DFB4" opacity="1.000000" stroke="none" 
	d="
M119.355904,677.566528 
	C119.998032,677.649170 120.640167,677.731812 121.606689,678.134766 
	C121.931076,678.455078 121.950356,678.917053 121.950356,678.917053 
	C121.688004,683.184631 121.341904,687.449280 121.190849,691.720825 
	C121.078133,694.908752 123.463814,694.840820 125.692719,694.839417 
	C133.479111,694.834656 141.265686,694.804077 149.051773,694.851196 
	C150.678665,694.861023 152.303818,695.160400 153.956177,695.683655 
	C153.740021,695.963684 153.504196,695.980957 152.776672,696.038696 
	C141.699188,696.033508 131.120148,696.082458 120.222046,696.024048 
	C119.720619,689.799988 119.538261,683.683228 119.355904,677.566528 
z"/>
<path fill="#CCC88A" opacity="1.000000" stroke="none" 
	d="
M966.220947,400.028473 
	C966.144165,399.646332 966.067444,399.264160 966.014282,398.594116 
	C966.632507,399.128632 967.746582,399.951324 967.746033,400.773346 
	C967.733093,421.985931 967.604065,443.198425 967.264404,464.310333 
	C967.011841,444.761383 967.010925,425.312958 966.935791,405.864838 
	C966.928284,403.918518 966.470032,401.973877 966.220947,400.028473 
z"/>
<path fill="#24225E" opacity="1.000000" stroke="none" 
	d="
M898.928162,741.318970 
	C898.865295,740.854126 898.920471,740.676758 899.033936,740.226318 
	C899.092224,739.953186 899.459595,739.892700 899.640991,739.854004 
	C901.210083,740.177063 902.596741,740.849182 903.985535,740.853516 
	C922.438843,740.911865 940.892395,740.892944 959.345703,740.833130 
	C960.808105,740.828430 962.269104,740.378845 964.113403,740.130737 
	C964.560913,740.558472 964.625671,740.991516 964.147095,741.725708 
	C942.187073,742.066895 920.770325,742.106812 899.353638,742.146729 
	C899.251160,741.966675 899.148621,741.786621 898.928162,741.318970 
z"/>
<path fill="#E2DFB4" opacity="1.000000" stroke="none" 
	d="
M966.167725,400.494324 
	C966.470032,401.973877 966.928284,403.918518 966.935791,405.864838 
	C967.010925,425.312958 967.011841,444.761383 967.088257,464.691284 
	C967.157776,465.598999 967.172546,466.025177 966.921265,466.767395 
	C966.484802,467.088043 966.314270,467.092590 966.143799,467.097107 
	C966.134033,445.051453 966.124207,423.005829 966.167725,400.494324 
z"/>
<path fill="#E2DFB4" opacity="1.000000" stroke="none" 
	d="
M120.451050,741.653625 
	C120.173485,732.355652 120.122169,723.163269 120.062759,713.247864 
	C120.336838,712.308228 120.619026,712.091675 121.369049,711.962341 
	C132.560989,712.023804 143.285095,711.998108 154.009201,711.972412 
	C151.975830,712.379639 149.948288,713.099609 147.908035,713.137634 
	C140.756775,713.270996 133.598495,713.281067 126.448219,713.111877 
	C122.613945,713.021240 121.063164,714.520752 121.076782,718.390930 
	C121.104202,726.179810 120.828140,733.969788 120.451050,741.653625 
z"/>
<path fill="#E2DFB4" opacity="1.000000" stroke="none" 
	d="
M899.601318,742.445374 
	C920.770325,742.106812 942.187073,742.066895 964.016907,742.035522 
	C963.251587,742.421082 962.074158,743.122925 960.894348,743.126953 
	C941.351257,743.192871 921.807922,743.176270 902.264587,743.151184 
	C901.459229,743.150146 900.654236,742.885742 899.601318,742.445374 
z"/>
<path fill="#E2DFB4" opacity="1.000000" stroke="none" 
	d="
M199.755432,742.041199 
	C220.913712,741.991211 241.816116,742.022400 263.137390,742.118774 
	C262.340210,742.518982 261.124908,743.143066 259.908051,743.146179 
	C240.371933,743.196350 220.835571,743.172485 201.299332,743.138000 
	C200.492584,743.136536 199.686310,742.866150 198.656891,742.417358 
	C198.789154,742.116577 199.144348,742.119507 199.755432,742.041199 
z"/>
<path fill="#E2DFB4" opacity="1.000000" stroke="none" 
	d="
M811.531250,399.321045 
	C811.880859,420.355804 811.925659,441.680115 811.714294,463.529236 
	C811.458130,464.054077 811.044006,464.170837 811.044006,464.170837 
	C811.104858,442.650757 811.165649,421.130646 811.531250,399.321045 
z"/>
<path fill="#303089" opacity="1.000000" stroke="none" 
	d="
M154.141449,711.580688 
	C143.285095,711.998108 132.560989,712.023804 121.694496,711.682251 
	C127.640739,711.170898 133.728897,710.999756 139.818115,710.887939 
	C155.146317,710.606628 152.970535,713.265015 153.049530,697.126831 
	C153.173737,696.552185 153.224426,696.322571 153.275131,696.092896 
	C153.504196,695.980957 153.740021,695.963684 154.150711,696.001587 
	C154.303802,701.037720 154.288757,706.113342 154.141449,711.580688 
z"/>
<path fill="#CCC88A" opacity="1.000000" stroke="none" 
	d="
M966.055908,467.516815 
	C966.314270,467.092590 966.484802,467.088043 966.911499,467.087646 
	C966.494873,473.970612 965.958252,480.866638 965.087524,487.720245 
	C964.696899,490.794983 963.637756,493.784790 962.461182,496.923004 
	C962.040405,497.032867 961.801086,496.820099 961.813843,496.442261 
	C961.948059,495.064392 962.069519,494.064362 962.190979,493.064362 
	C962.190979,493.064362 962.108887,493.067749 962.374390,492.802063 
	C963.196960,489.052887 963.754089,485.569427 964.311157,482.085968 
	C964.311157,482.085968 964.500122,481.893646 964.490906,481.760773 
	C964.977112,477.064117 965.472595,472.500305 966.055908,467.516815 
z"/>
<path fill="#24225E" opacity="1.000000" stroke="none" 
	d="
M615.979675,739.671143 
	C622.544861,739.441284 629.116638,739.523987 635.804321,739.219543 
	C636.458984,739.973755 636.997742,741.115234 637.902344,743.031982 
	C630.924194,743.031982 625.005188,743.183899 619.107727,742.894592 
	C618.022217,742.841309 617.024475,740.999817 615.979675,739.671143 
z"/>
<path fill="#E7E68B" opacity="1.000000" stroke="none" 
	d="
M919.009705,709.968689 
	C929.944458,709.917603 940.857300,709.939270 952.197815,710.014160 
	C951.099670,710.419678 949.577881,711.055115 948.047363,711.076782 
	C940.105103,711.189392 932.158081,711.264099 924.218079,711.098450 
	C920.955994,711.030457 919.697937,712.209656 919.923584,715.418701 
	C920.120544,718.219482 920.054260,721.038818 919.864990,724.308105 
	C919.416687,724.759460 919.207581,724.752625 918.894165,724.315063 
	C918.805176,719.267517 918.820618,714.650696 918.836060,710.033936 
	C918.835999,710.033936 918.987793,710.041443 919.009705,709.968689 
z"/>
<path fill="#24225E" opacity="1.000000" stroke="none" 
	d="
M964.620972,727.511719 
	C953.401489,727.561096 942.298340,727.324951 931.194702,727.113708 
	C927.704163,727.047302 924.212341,727.048096 920.311401,726.745605 
	C919.901794,726.473022 920.041565,726.077271 920.505188,726.026611 
	C935.507996,726.000183 950.047180,726.024414 964.586365,726.048584 
	C964.636597,726.444336 964.686829,726.840088 964.620972,727.511719 
z"/>
<path fill="#E2DFB4" opacity="1.000000" stroke="none" 
	d="
M964.386597,725.717896 
	C950.047180,726.024414 935.507996,726.000183 920.261902,725.953857 
	C919.386108,725.940979 919.217163,725.950256 919.048279,725.959473 
	C919.048279,725.959473 919.002441,725.995483 918.944702,725.674255 
	C918.924072,725.150635 918.961304,724.948242 918.998535,724.745789 
	C919.207581,724.752625 919.416687,724.759460 919.940063,724.751587 
	C933.116577,724.775330 945.978882,724.793945 958.840820,724.875549 
	C960.623779,724.886841 962.404846,725.208862 964.386597,725.717896 
z"/>
<path fill="#E7E68B" opacity="1.000000" stroke="none" 
	d="
M122.423126,678.936035 
	C121.950356,678.917053 121.931076,678.455078 121.918465,678.224121 
	C135.937546,677.933777 149.969223,677.874390 164.452057,677.904053 
	C163.351227,678.335388 161.800659,678.966858 160.247070,678.974365 
	C147.796997,679.034485 135.346359,678.976746 122.423126,678.936035 
z"/>
<path fill="#24225E" opacity="1.000000" stroke="none" 
	d="
M1063.937256,740.770996 
	C1064.578979,740.702209 1065.220581,740.633362 1066.034424,740.661621 
	C1065.394653,741.519409 1064.592285,742.924683 1063.769043,742.937012 
	C1057.993286,743.023682 1052.213379,742.822876 1046.192871,742.350769 
	C1045.997559,741.754456 1046.044189,741.521423 1046.564819,740.977783 
	C1052.671753,740.701843 1058.304443,740.736389 1063.937256,740.770996 
z"/>
<path fill="#24225E" opacity="1.000000" stroke="none" 
	d="
M747.787109,575.629761 
	C746.836365,575.367554 745.923218,575.083130 744.693359,574.622192 
	C752.702271,575.502869 761.027832,576.560120 769.603882,577.912109 
	C762.822754,577.364197 755.791138,576.521484 748.304138,575.685059 
	C747.848755,575.691406 747.824646,575.607666 747.787109,575.629761 
z"/>
<path fill="#CCC88A" opacity="1.000000" stroke="none" 
	d="
M959.961548,500.975250 
	C959.961548,500.975250 960.187561,500.640778 960.446411,500.179565 
	C960.822449,498.800476 960.939514,497.882660 961.056580,496.964813 
	C961.056580,496.964813 960.988342,497.004700 961.210449,497.004120 
	C961.432617,497.003540 961.801086,496.820099 961.801086,496.820099 
	C961.801086,496.820099 962.040405,497.032867 962.162292,497.138580 
	C961.104736,501.070190 959.925232,504.896118 958.376770,508.862671 
	C958.007812,509.003265 957.764709,508.779053 957.798950,508.452637 
	C957.959290,507.488556 958.085449,506.850891 958.211609,506.213257 
	C958.211609,506.213257 958.248352,506.177795 958.482788,505.890930 
	C958.822083,504.901550 958.926880,504.199066 959.031738,503.496582 
	C959.031738,503.496582 958.981934,503.514984 959.268066,503.295410 
	C959.689941,502.375641 959.825745,501.675446 959.961548,500.975250 
z"/>
<path fill="#CCC88A" opacity="1.000000" stroke="none" 
	d="
M678.921875,268.272095 
	C677.218506,270.269470 675.167419,272.203217 672.813965,274.249573 
	C674.532532,272.310944 676.553345,270.259705 678.921875,268.272095 
z"/>
<path fill="#CCC88A" opacity="1.000000" stroke="none" 
	d="
M937.974365,539.601929 
	C938.634766,538.274475 939.622375,537.029602 940.938782,535.463135 
	C941.479492,535.062988 941.691467,534.984375 942.005737,535.002197 
	C942.107971,535.098633 942.313110,535.290771 942.313110,535.290771 
	C940.975891,536.755371 939.638733,538.219910 937.974365,539.601929 
z"/>
<path fill="#CCC88A" opacity="1.000000" stroke="none" 
	d="
M671.990051,274.435669 
	C671.251831,275.734406 670.164062,276.939850 668.794678,278.271362 
	C669.555542,277.045776 670.598022,275.694061 671.990051,274.435669 
z"/>
<path fill="#CCC88A" opacity="1.000000" stroke="none" 
	d="
M944.546387,530.998718 
	C944.546387,530.998718 944.906067,530.694702 945.181335,530.378357 
	C945.635620,529.690735 945.814636,529.319458 945.993652,528.948181 
	C945.993652,528.948181 945.949646,528.961060 946.148499,528.920288 
	C946.347351,528.879578 946.744690,528.756226 946.871704,528.873962 
	C946.998657,528.991699 947.254211,529.225403 947.254150,529.225403 
	C946.428406,530.462158 945.602600,531.698914 944.371460,532.953613 
	C943.966187,532.971497 943.738831,532.741150 943.842651,532.438110 
	C944.146484,531.756226 944.346436,531.377502 944.546387,530.998718 
z"/>
<path fill="#CCC88A" opacity="1.000000" stroke="none" 
	d="
M956.326416,512.869995 
	C955.989075,512.558411 955.987183,512.223450 956.281982,511.408142 
	C956.731750,510.270813 956.884766,509.613800 957.037842,508.956818 
	C957.037842,508.956818 956.968811,508.986481 957.177979,508.962524 
	C957.387207,508.938568 957.764709,508.779053 957.764709,508.779053 
	C957.764709,508.779053 958.007812,509.003265 958.131348,509.114807 
	C957.723877,510.433075 957.192871,511.639832 956.326416,512.869995 
z"/>
<path fill="#CCC88A" opacity="1.000000" stroke="none" 
	d="
M954.010132,517.541748 
	C954.120850,516.406616 954.592712,515.241882 955.304443,513.881836 
	C955.153320,514.961731 954.762329,516.236938 954.010132,517.541748 
z"/>
<path fill="#CCC88A" opacity="1.000000" stroke="none" 
	d="
M952.281067,520.844849 
	C952.297852,519.940063 952.669922,519.011780 953.289551,517.903809 
	C953.236755,518.756592 952.936584,519.789001 952.281067,520.844849 
z"/>
<path fill="#CCC88A" opacity="1.000000" stroke="none" 
	d="
M962.323730,397.987061 
	C961.951111,397.906860 962.070679,397.433014 962.121887,397.193420 
	C963.305847,397.144470 964.438538,397.335144 965.630493,397.775146 
	C964.691895,398.038727 963.694153,398.053009 962.323730,397.987061 
z"/>
<path fill="#CCC88A" opacity="1.000000" stroke="none" 
	d="
M737.599487,491.973755 
	C736.964417,491.886932 736.388489,491.464447 735.712097,490.784973 
	C736.293945,490.898041 736.976257,491.268066 737.599487,491.973755 
z"/>
<path fill="#CCC88A" opacity="1.000000" stroke="none" 
	d="
M947.505188,526.962769 
	C947.505188,526.962769 947.776367,526.888245 947.897461,526.959717 
	C947.896057,527.608032 947.773682,528.184814 947.452759,528.993530 
	C947.254211,529.225403 946.998657,528.991699 946.967346,528.562866 
	C947.125732,527.743652 947.315430,527.353210 947.505188,526.962769 
z"/>
<path fill="#CCC88A" opacity="1.000000" stroke="none" 
	d="
M949.121521,525.846436 
	C948.738831,525.598999 948.762512,525.291504 949.195557,524.626587 
	C949.641174,524.160217 949.798645,524.060608 950.060181,524.057739 
	C950.164185,524.154602 950.374084,524.346252 950.374084,524.346252 
	C950.051575,524.823181 949.729065,525.300110 949.121521,525.846436 
z"/>
<path fill="#CCC88A" opacity="1.000000" stroke="none" 
	d="
M951.380493,520.912781 
	C951.380493,520.912781 951.635254,520.819336 951.757507,520.877808 
	C951.785645,521.532227 951.691528,522.128174 951.290955,522.857361 
	C950.984436,522.990540 950.736877,522.745300 950.814575,522.430725 
	C951.054932,521.715027 951.217712,521.313904 951.380493,520.912781 
z"/>
<path fill="#CCC88A" opacity="1.000000" stroke="none" 
	d="
M680.076538,267.444489 
	C680.347717,267.862396 680.172668,268.119873 679.575623,268.268188 
	C679.489258,267.987701 679.648193,267.696045 680.076538,267.444489 
z"/>
<path fill="#CCC88A" opacity="1.000000" stroke="none" 
	d="
M943.111328,533.898987 
	C942.842285,533.903992 942.784302,533.465759 943.038025,533.170898 
	C943.291748,532.875977 943.738831,532.741150 943.738831,532.741150 
	C943.738831,532.741150 943.966187,532.971497 944.080322,533.088867 
	C943.923096,533.435486 943.651733,533.664734 943.111328,533.898987 
z"/>
<path fill="#CCC88A" opacity="1.000000" stroke="none" 
	d="
M813.584534,397.155670 
	C813.770081,397.080780 813.931519,397.492401 814.015076,397.697418 
	C813.914062,397.950287 813.729431,397.998138 813.267700,397.974487 
	C813.018433,397.612854 813.154602,397.388733 813.584534,397.155670 
z"/>
<path fill="#CCC88A" opacity="1.000000" stroke="none" 
	d="
M811.141724,464.366638 
	C811.044006,464.170837 811.458130,464.054077 811.663940,463.990906 
	C811.918640,464.088837 811.967529,464.249908 812.015198,464.662872 
	C811.694336,464.932007 811.436218,464.814606 811.141724,464.366638 
z"/>
<path fill="#CCC88A" opacity="1.000000" stroke="none" 
	d="
M951.108154,523.113220 
	C951.094421,523.520752 950.921021,523.781616 950.542847,524.182434 
	C950.374084,524.346252 950.164185,524.154602 950.080322,523.803589 
	C949.998962,523.282532 950.001526,523.112488 950.004089,522.942505 
	C950.004089,522.942505 949.941528,522.961914 950.143433,522.923889 
	C950.345398,522.885864 950.736877,522.745300 950.736877,522.745300 
	C950.736877,522.745300 950.984436,522.990540 951.108154,523.113220 
z"/>
<path fill="#CCC88A" opacity="1.000000" stroke="none" 
	d="
M948.304077,526.947632 
	C948.141418,526.688721 948.254211,526.361206 948.622681,525.943237 
	C948.778748,526.194824 948.679138,526.536926 948.304077,526.947632 
z"/>
<path fill="#CCC88A" opacity="1.000000" stroke="none" 
	d="
M942.086487,533.936890 
	C942.086487,533.936890 942.482544,533.826904 942.688232,533.831482 
	C942.827637,534.186523 942.761475,534.537048 942.504211,535.089111 
	C942.313110,535.290771 942.107971,535.098633 942.056274,534.760864 
	C942.004639,534.423096 942.086487,533.936890 942.086487,533.936890 
z"/>
<path fill="#CCC88A" opacity="1.000000" stroke="none" 
	d="
M665.378845,532.932983 
	C665.742249,532.610413 666.025818,532.746582 666.265381,533.314087 
	C666.004700,533.438416 665.697327,533.320557 665.378845,532.932983 
z"/>
<path fill="#24225E" opacity="1.000000" stroke="none" 
	d="
M834.840088,578.238770 
	C817.988770,578.723145 800.656860,579.180298 783.322021,579.450928 
	C779.368103,579.512634 775.404114,578.929932 771.059204,578.471497 
	C779.290466,578.482544 787.908386,578.850403 796.524048,578.805664 
	C809.136292,578.740234 821.747009,578.379089 834.840088,578.238770 
z"/>
<path fill="#24225E" opacity="1.000000" stroke="none" 
	d="
M964.016846,482.327209 
	C963.754089,485.569427 963.196960,489.052887 962.392700,492.838806 
	C962.671204,489.616974 963.196838,486.092712 964.016846,482.327209 
z"/>
<path fill="#24225E" opacity="1.000000" stroke="none" 
	d="
M961.813843,496.442261 
	C961.801086,496.820099 961.432617,497.003540 961.229858,497.038574 
	C961.218567,495.885834 961.409973,494.698120 961.896240,493.287354 
	C962.069519,494.064362 961.948059,495.064392 961.813843,496.442261 
z"/>
<path fill="#24225E" opacity="1.000000" stroke="none" 
	d="
M957.798950,508.452637 
	C957.764709,508.779053 957.387207,508.938568 957.190979,508.997803 
	C957.207092,508.216003 957.419434,507.375000 957.921692,506.373627 
	C958.085449,506.850891 957.959290,507.488556 957.798950,508.452637 
z"/>
<path fill="#24225E" opacity="1.000000" stroke="none" 
	d="
M960.813477,497.225037 
	C960.939514,497.882660 960.822449,498.800476 960.480225,499.980560 
	C960.360107,499.323608 960.465210,498.404419 960.813477,497.225037 
z"/>
<path fill="#24225E" opacity="1.000000" stroke="none" 
	d="
M956.775574,509.178986 
	C956.884766,509.613800 956.731750,510.270813 956.316040,511.153290 
	C956.206665,510.719543 956.359985,510.060333 956.775574,509.178986 
z"/>
<path fill="#24225E" opacity="1.000000" stroke="none" 
	d="
M943.842651,532.438110 
	C943.738831,532.741150 943.291748,532.875977 943.069336,532.952026 
	C943.191162,532.436584 943.535461,531.845093 944.213074,531.126160 
	C944.346436,531.377502 944.146484,531.756226 943.842651,532.438110 
z"/>
<path fill="#24225E" opacity="1.000000" stroke="none" 
	d="
M947.185669,527.090332 
	C947.315430,527.353210 947.125732,527.743652 946.840332,528.445190 
	C946.744690,528.756226 946.347351,528.879578 946.148926,528.943237 
	C946.255737,528.410583 946.560913,527.814270 947.185669,527.090332 
z"/>
<path fill="#24225E" opacity="1.000000" stroke="none" 
	d="
M950.814575,522.430725 
	C950.736877,522.745300 950.345398,522.885864 950.149536,522.956055 
	C950.221130,522.420288 950.488525,521.814209 951.068176,521.060425 
	C951.217712,521.313904 951.054932,521.715027 950.814575,522.430725 
z"/>
<path fill="#24225E" opacity="1.000000" stroke="none" 
	d="
M959.673462,501.205688 
	C959.825745,501.675446 959.689941,502.375641 959.283997,503.316650 
	C959.137695,502.850372 959.261536,502.143250 959.673462,501.205688 
z"/>
<path fill="#24225E" opacity="1.000000" stroke="none" 
	d="
M958.814575,503.786133 
	C958.926880,504.199066 958.822083,504.901550 958.484619,505.865479 
	C958.367126,505.443146 958.482300,504.759430 958.814575,503.786133 
z"/>
<path fill="#24225E" opacity="1.000000" stroke="none" 
	d="
M949.715698,523.112915 
	C950.001526,523.112488 949.998962,523.282532 949.976318,523.706726 
	C949.798645,524.060608 949.641174,524.160217 949.237549,524.394958 
	C949.136841,524.114502 949.282104,523.698914 949.715698,523.112915 
z"/>
<path fill="#24225E" opacity="1.000000" stroke="none" 
	d="
M945.709412,529.106201 
	C945.814636,529.319458 945.635620,529.690735 945.207458,530.259888 
	C945.113953,530.059998 945.269531,529.662109 945.709412,529.106201 
z"/>
<path fill="#24225E" opacity="1.000000" stroke="none" 
	d="
M941.781433,534.069641 
	C942.086487,533.936890 942.004639,534.423096 941.954102,534.664429 
	C941.691467,534.984375 941.479492,535.062988 940.926636,535.159424 
	C940.882629,534.852234 941.179504,534.527344 941.781433,534.069641 
z"/>
<path fill="#EFEB4A" opacity="1.000000" stroke="none" 
	d="
M600.932190,699.358765 
	C596.174133,699.358765 591.899048,699.358765 587.442383,699.358765 
	C587.442383,691.866638 587.442383,684.980591 587.442383,677.619324 
	C595.306458,677.619324 602.910583,677.320007 610.460449,677.827576 
	C612.372620,677.956177 614.972351,680.321106 615.725952,682.254761 
	C616.815552,685.050659 616.968750,688.430237 616.701233,691.489075 
	C616.203125,697.184021 613.649902,699.210693 607.888977,699.343140 
	C605.732056,699.392761 603.573181,699.356140 600.932190,699.358765 
z"/>
<path fill="#F4F143" opacity="1.000000" stroke="none" 
	d="
M732.413635,690.874756 
	C732.312012,698.984558 733.217590,706.966431 731.551941,714.369690 
	C729.432373,723.789978 721.836243,727.436768 709.971924,726.998291 
	C700.156128,726.635559 692.802490,721.759521 691.395386,712.801147 
	C690.258301,705.561768 690.314209,697.883850 691.358459,690.618591 
	C692.574341,682.159363 698.958801,677.687622 708.451721,676.612976 
	C720.878967,675.206177 728.328796,679.544922 732.413635,690.874756 
z"/>
<path fill="#3C3B8A" opacity="1.000000" stroke="none" 
	d="
M918.894165,724.315063 
	C918.961304,724.948242 918.924072,725.150635 918.963257,725.651611 
	C915.439209,720.912598 916.941040,715.575195 918.476807,710.145386 
	C918.820618,714.650696 918.805176,719.267517 918.894165,724.315063 
z"/>
<path fill="#3C3B8A" opacity="1.000000" stroke="none" 
	d="
M919.098083,726.159302 
	C919.217163,725.950256 919.386108,725.940979 919.798279,726.004517 
	C920.041565,726.077271 919.901794,726.473022 919.832886,726.670593 
	C919.496948,726.773193 919.291565,726.603516 919.098083,726.159302 
z"/>
<path fill="#0D0BCD" opacity="1.000000" stroke="none" 
	d="
M383.553711,449.864014 
	C383.331482,450.188782 383.175018,450.642517 383.053925,450.850403 
	C382.629028,453.482147 382.063843,455.905670 382.060638,458.329956 
	C382.012299,494.820557 381.933350,531.311951 382.164581,567.801270 
	C382.197357,572.970337 380.615234,574.220093 375.662109,574.163879 
	C353.503876,573.912598 331.340240,573.934937 309.181091,574.138794 
	C304.571045,574.181152 302.834961,573.154602 302.841614,568.122253 
	C302.983795,460.816193 302.992737,353.509918 302.839142,246.203949 
	C302.831635,240.947495 304.520386,239.898727 309.395630,239.906464 
	C395.706635,240.043655 482.017944,240.046951 568.328918,239.904617 
	C573.078064,239.896759 574.192017,241.406174 574.135681,245.868912 
	C573.914612,263.361694 574.048523,280.858917 574.044006,298.354492 
	C574.042297,304.946930 574.034241,304.961700 567.532898,304.961578 
	C507.881317,304.960541 448.229736,304.949738 388.578156,304.961304 
	C385.492004,304.961884 381.745605,304.181152 382.163818,310.227753 
	C382.208313,334.646973 382.252960,358.204346 382.297607,381.761719 
	C384.410248,382.544006 386.520386,384.000519 388.635895,384.008362 
	C425.916901,384.147003 463.198578,384.108398 500.480103,384.109589 
	C507.618073,384.109833 514.757751,384.207642 521.893250,384.075562 
	C524.804443,384.021667 526.105713,384.886047 526.090881,388.017975 
	C526.000732,406.991180 525.955627,425.965759 526.112915,444.938080 
	C526.150757,449.508484 523.298584,448.982727 520.476990,448.983093 
	C491.683716,448.986877 462.890411,448.984283 434.097137,448.983734 
	C419.117950,448.983429 404.138702,448.964935 389.159637,449.007996 
	C387.364563,449.013184 385.570465,449.354034 383.553711,449.864014 
z"/>
<path fill="#24225E" opacity="1.000000" stroke="none" 
	d="
M382.457550,381.416046 
	C382.252960,358.204346 382.208313,334.646973 382.217621,310.643250 
	C382.446564,310.832855 382.775177,311.469025 382.774261,312.104706 
	C382.741089,335.093292 382.677185,358.081818 382.457550,381.416046 
z"/>
<path fill="#0E0CC8" opacity="1.000000" stroke="none" 
	d="
M152.976028,697.471863 
	C152.970535,713.265015 155.146317,710.606628 139.818115,710.887939 
	C133.728897,710.999756 127.640739,711.170898 121.226654,711.595093 
	C120.619026,712.091675 120.336838,712.308228 119.981308,712.788696 
	C119.604378,719.638916 119.154900,726.222595 119.034126,732.812256 
	C118.882919,741.062439 118.998741,741.123413 110.912498,741.024536 
	C100.893936,740.902039 101.643318,742.644165 101.630440,731.612244 
	C101.605721,710.449585 101.731499,689.286072 101.558136,668.124878 
	C101.521439,663.645813 102.755646,661.935852 107.493393,662.045410 
	C124.976013,662.449768 142.467041,662.563293 159.955276,662.597046 
	C163.947372,662.604797 165.404755,664.236450 165.058014,668.009521 
	C164.951797,669.165466 164.955429,670.351440 165.080429,671.505066 
	C165.481918,675.210571 163.881058,676.465515 160.191437,676.409912 
	C148.862854,676.239197 137.529694,676.316101 126.198952,676.392090 
	C124.063293,676.406433 121.930573,676.859680 119.576202,677.338440 
	C119.538261,683.683228 119.720619,689.799988 120.448837,696.313477 
	C122.785240,696.839417 124.574326,697.051880 126.366585,697.083374 
	C135.235947,697.239197 144.106125,697.347107 152.976028,697.471863 
z"/>
<path fill="#100FC6" opacity="1.000000" stroke="none" 
	d="
M1063.954224,740.416016 
	C1058.304443,740.736389 1052.671753,740.701843 1046.572876,740.621338 
	C1042.018677,733.634460 1037.682617,726.823669 1033.945190,719.698853 
	C1032.027100,716.042236 1029.621094,714.737671 1025.731445,715.198547 
	C1022.818481,715.543640 1019.869995,715.589355 1016.607544,716.007446 
	C1015.872437,720.598328 1015.186401,724.945740 1015.117554,729.302917 
	C1014.947876,740.038818 1015.061890,740.040710 1004.383606,740.191467 
	C997.959167,740.282227 997.950745,740.282227 997.950867,733.805786 
	C997.951294,712.156189 998.105591,690.504822 997.852234,668.858215 
	C997.793823,663.867004 999.525269,662.720154 1004.164612,662.835510 
	C1015.814819,663.125427 1027.477417,662.975098 1039.134521,662.910034 
	C1046.146240,662.870850 1052.686890,664.190613 1058.510010,669.006226 
	C1065.157471,677.594604 1064.853638,687.309326 1063.659668,696.897522 
	C1062.949341,702.601685 1059.917114,707.589478 1054.447876,710.394897 
	C1050.435547,712.452942 1050.018066,714.851746 1052.349487,718.748779 
	C1056.500366,725.687134 1060.125977,732.939819 1063.954224,740.416016 
M1016.638550,697.652344 
	C1017.497437,698.220947 1018.347961,699.266968 1019.216553,699.282104 
	C1025.874634,699.398743 1032.567017,699.666931 1039.178589,699.087585 
	C1041.272705,698.904053 1044.475830,696.570251 1044.862427,694.734314 
	C1045.716919,690.676025 1045.516968,686.246521 1044.886597,682.099243 
	C1044.640015,680.477173 1042.146729,678.054749 1040.570190,677.969482 
	C1032.706421,677.544312 1024.807251,677.775085 1016.578613,677.775085 
	C1016.578613,684.493591 1016.578613,690.637451 1016.638550,697.652344 
z"/>
<path fill="#0E0CC8" opacity="1.000000" stroke="none" 
	d="
M217.640350,724.705200 
	C217.973206,725.219238 218.039978,725.410156 218.285217,725.851074 
	C220.171860,726.443726 221.877838,727.069824 223.588562,727.083191 
	C234.890274,727.170898 246.204239,727.428406 257.491058,727.008545 
	C263.895081,726.770325 262.745850,730.746155 262.904877,734.498718 
	C263.069733,738.388611 262.855438,741.057495 257.517365,740.973572 
	C238.574158,740.675476 219.623184,740.870056 200.173553,740.855347 
	C199.520813,739.524109 199.239731,738.215698 199.237885,736.906921 
	C199.205566,713.943115 199.293396,690.978760 199.128220,668.016113 
	C199.095688,663.494141 200.480682,661.943359 205.153000,662.056763 
	C216.948380,662.343018 216.962646,662.126526 216.972778,674.015198 
	C216.985535,688.991577 216.968597,703.967957 217.002197,718.944275 
	C217.006256,720.757202 217.244537,722.569580 217.640350,724.705200 
z"/>
<path fill="#24225E" opacity="1.000000" stroke="none" 
	d="
M153.049530,697.126831 
	C144.106125,697.347107 135.235947,697.239197 126.366585,697.083374 
	C124.574326,697.051880 122.785240,696.839417 120.767914,696.420837 
	C131.120148,696.082458 141.699188,696.033508 152.776672,696.038696 
	C153.224426,696.322571 153.173737,696.552185 153.049530,697.126831 
z"/>
<path fill="#EFEB4A" opacity="1.000000" stroke="none" 
	d="
M1016.608582,697.216858 
	C1016.578613,690.637451 1016.578613,684.493591 1016.578613,677.775085 
	C1024.807251,677.775085 1032.706421,677.544312 1040.570190,677.969482 
	C1042.146729,678.054749 1044.640015,680.477173 1044.886597,682.099243 
	C1045.516968,686.246521 1045.716919,690.676025 1044.862427,694.734314 
	C1044.475830,696.570251 1041.272705,698.904053 1039.178589,699.087585 
	C1032.567017,699.666931 1025.874634,699.398743 1019.216553,699.282104 
	C1018.347961,699.266968 1017.497437,698.220947 1016.608582,697.216858 
z"/>
</svg>